<mxfile host="Electron" agent="Mozilla/5.0 (Windows NT 10.0; Win64; x64) AppleWebKit/537.36 (KHTML, like Gecko) draw.io/28.0.6 Chrome/138.0.7204.100 Electron/37.2.3 Safari/537.36" version="28.0.6">
  <diagram name="Page-1" id="_wlD32SxArvHnDIvZRhB">
    <mxGraphModel dx="1426" dy="859" grid="1" gridSize="10" guides="1" tooltips="1" connect="1" arrows="1" fold="1" page="1" pageScale="1" pageWidth="850" pageHeight="1100" math="0" shadow="0">
      <root>
        <mxCell id="0" />
        <mxCell id="1" parent="0" />
        <mxCell id="gjNsdtH0i1_UxAf90j_M-17" value="" style="endArrow=none;html=1;rounded=0;entryX=0.475;entryY=0.996;entryDx=0;entryDy=0;entryPerimeter=0;strokeWidth=2;" parent="1" target="gjNsdtH0i1_UxAf90j_M-2" edge="1">
          <mxGeometry width="50" height="50" relative="1" as="geometry">
            <mxPoint x="690" y="590" as="sourcePoint" />
            <mxPoint x="700" y="460" as="targetPoint" />
          </mxGeometry>
        </mxCell>
        <mxCell id="gjNsdtH0i1_UxAf90j_M-20" value="GND" style="edgeLabel;html=1;align=center;verticalAlign=middle;resizable=0;points=[];" parent="gjNsdtH0i1_UxAf90j_M-17" vertex="1" connectable="0">
          <mxGeometry x="0.4695" y="-1" relative="1" as="geometry">
            <mxPoint as="offset" />
          </mxGeometry>
        </mxCell>
        <mxCell id="gjNsdtH0i1_UxAf90j_M-40" value="" style="endArrow=none;html=1;rounded=0;entryX=0.235;entryY=0.995;entryDx=0;entryDy=0;strokeColor=#FF0000;strokeWidth=2;entryPerimeter=0;" parent="1" target="gjNsdtH0i1_UxAf90j_M-2" edge="1">
          <mxGeometry width="50" height="50" relative="1" as="geometry">
            <mxPoint x="650" y="500" as="sourcePoint" />
            <mxPoint x="460" y="370" as="targetPoint" />
          </mxGeometry>
        </mxCell>
        <mxCell id="gjNsdtH0i1_UxAf90j_M-1" value="OpenTheremin V4x&lt;div&gt;BOARD&lt;/div&gt;" style="whiteSpace=wrap;html=1;aspect=fixed;strokeColor=default;rounded=0;arcSize=0;glass=1;imageAspect=1;rotation=0;" parent="1" vertex="1">
          <mxGeometry x="200" y="220" width="160" height="320" as="geometry" />
        </mxCell>
        <mxCell id="gjNsdtH0i1_UxAf90j_M-412" style="edgeStyle=orthogonalEdgeStyle;rounded=0;orthogonalLoop=1;jettySize=auto;html=1;exitX=0.5;exitY=0;exitDx=0;exitDy=0;entryX=0.5;entryY=1;entryDx=0;entryDy=0;" parent="1" source="gjNsdtH0i1_UxAf90j_M-2" target="gjNsdtH0i1_UxAf90j_M-409" edge="1">
          <mxGeometry relative="1" as="geometry" />
        </mxCell>
        <mxCell id="gjNsdtH0i1_UxAf90j_M-413" value="I2C" style="edgeLabel;html=1;align=center;verticalAlign=middle;resizable=0;points=[];" parent="gjNsdtH0i1_UxAf90j_M-412" vertex="1" connectable="0">
          <mxGeometry x="0.05" y="3" relative="1" as="geometry">
            <mxPoint as="offset" />
          </mxGeometry>
        </mxCell>
        <mxCell id="gjNsdtH0i1_UxAf90j_M-2" value="Arduino&amp;nbsp;&lt;span style=&quot;background-color: transparent; color: light-dark(rgb(0, 0, 0), rgb(255, 255, 255));&quot;&gt;UNO&lt;/span&gt;&lt;div&gt;+&lt;/div&gt;&lt;div&gt;DISPLAY BOARD&lt;/div&gt;" style="whiteSpace=wrap;html=1;aspect=fixed;glass=1;rounded=1;" parent="1" vertex="1">
          <mxGeometry x="620" y="310" width="160" height="160" as="geometry" />
        </mxCell>
        <mxCell id="gjNsdtH0i1_UxAf90j_M-4" value="" style="endArrow=classicThin;html=1;rounded=0;exitX=1;exitY=0.25;exitDx=0;exitDy=0;entryX=0;entryY=0.25;entryDx=0;entryDy=0;startArrow=classic;startFill=1;endFill=1;strokeWidth=2;strokeColor=#CC00CC;" parent="1" source="gjNsdtH0i1_UxAf90j_M-1" target="gjNsdtH0i1_UxAf90j_M-2" edge="1">
          <mxGeometry width="50" height="50" relative="1" as="geometry">
            <mxPoint x="410" y="470" as="sourcePoint" />
            <mxPoint x="460" y="420" as="targetPoint" />
          </mxGeometry>
        </mxCell>
        <mxCell id="gjNsdtH0i1_UxAf90j_M-5" value="Serial TX/RX" style="edgeLabel;html=1;align=center;verticalAlign=middle;resizable=0;points=[];" parent="gjNsdtH0i1_UxAf90j_M-4" vertex="1" connectable="0">
          <mxGeometry x="0.0383" y="1" relative="1" as="geometry">
            <mxPoint as="offset" />
          </mxGeometry>
        </mxCell>
        <mxCell id="gjNsdtH0i1_UxAf90j_M-6" value="" style="endArrow=classic;html=1;rounded=0;exitX=1;exitY=0.5;exitDx=0;exitDy=0;entryX=0;entryY=0.5;entryDx=0;entryDy=0;strokeWidth=2;strokeColor=#33FF33;" parent="1" source="gjNsdtH0i1_UxAf90j_M-1" target="gjNsdtH0i1_UxAf90j_M-2" edge="1">
          <mxGeometry width="50" height="50" relative="1" as="geometry">
            <mxPoint x="410" y="470" as="sourcePoint" />
            <mxPoint x="460" y="420" as="targetPoint" />
          </mxGeometry>
        </mxCell>
        <mxCell id="gjNsdtH0i1_UxAf90j_M-7" value="GATE OUTPUT" style="edgeLabel;html=1;align=center;verticalAlign=middle;resizable=0;points=[];" parent="gjNsdtH0i1_UxAf90j_M-6" vertex="1" connectable="0">
          <mxGeometry x="-0.0988" y="2" relative="1" as="geometry">
            <mxPoint as="offset" />
          </mxGeometry>
        </mxCell>
        <mxCell id="gjNsdtH0i1_UxAf90j_M-10" value="" style="pointerEvents=1;verticalLabelPosition=bottom;shadow=0;dashed=0;align=center;html=1;verticalAlign=top;shape=mxgraph.electrical.signal_sources.signal_ground;strokeWidth=2;" parent="1" vertex="1">
          <mxGeometry x="500" y="590" width="45" height="30" as="geometry" />
        </mxCell>
        <mxCell id="gjNsdtH0i1_UxAf90j_M-14" value="" style="curved=1;endArrow=classic;html=1;rounded=0;startArrow=classic;startFill=1;strokeWidth=3;entryX=0.725;entryY=1.02;entryDx=0;entryDy=0;entryPerimeter=0;exitX=0.5;exitY=0;exitDx=0;exitDy=0;" parent="1" source="gjNsdtH0i1_UxAf90j_M-12" target="gjNsdtH0i1_UxAf90j_M-2" edge="1">
          <mxGeometry width="50" height="50" relative="1" as="geometry">
            <mxPoint x="808.5" y="640" as="sourcePoint" />
            <mxPoint x="738.5" y="450" as="targetPoint" />
            <Array as="points">
              <mxPoint x="730" y="520" />
              <mxPoint x="778.5" y="510" />
            </Array>
          </mxGeometry>
        </mxCell>
        <mxCell id="gjNsdtH0i1_UxAf90j_M-15" value="USB 5V&lt;div&gt;+ serial&lt;/div&gt;&lt;div&gt;monitor&lt;/div&gt;" style="edgeLabel;html=1;align=center;verticalAlign=middle;resizable=0;points=[];" parent="gjNsdtH0i1_UxAf90j_M-14" vertex="1" connectable="0">
          <mxGeometry x="-0.2233" y="7" relative="1" as="geometry">
            <mxPoint x="65" y="13" as="offset" />
          </mxGeometry>
        </mxCell>
        <mxCell id="gjNsdtH0i1_UxAf90j_M-16" value="" style="endArrow=none;html=1;rounded=0;entryX=0.5;entryY=1;entryDx=0;entryDy=0;strokeWidth=2;" parent="1" target="gjNsdtH0i1_UxAf90j_M-1" edge="1">
          <mxGeometry width="50" height="50" relative="1" as="geometry">
            <mxPoint x="280" y="590" as="sourcePoint" />
            <mxPoint x="330" y="560" as="targetPoint" />
          </mxGeometry>
        </mxCell>
        <mxCell id="gjNsdtH0i1_UxAf90j_M-21" value="GND" style="edgeLabel;html=1;align=center;verticalAlign=middle;resizable=0;points=[];" parent="gjNsdtH0i1_UxAf90j_M-16" vertex="1" connectable="0">
          <mxGeometry x="-0.2812" relative="1" as="geometry">
            <mxPoint as="offset" />
          </mxGeometry>
        </mxCell>
        <mxCell id="gjNsdtH0i1_UxAf90j_M-18" value="" style="endArrow=none;html=1;rounded=0;entryX=0.5;entryY=0;entryDx=0;entryDy=0;entryPerimeter=0;strokeWidth=2;" parent="1" target="gjNsdtH0i1_UxAf90j_M-10" edge="1">
          <mxGeometry width="50" height="50" relative="1" as="geometry">
            <mxPoint x="280" y="590" as="sourcePoint" />
            <mxPoint x="430" y="370" as="targetPoint" />
          </mxGeometry>
        </mxCell>
        <mxCell id="gjNsdtH0i1_UxAf90j_M-19" value="" style="endArrow=none;html=1;rounded=0;exitX=0.5;exitY=0;exitDx=0;exitDy=0;exitPerimeter=0;strokeWidth=2;" parent="1" source="gjNsdtH0i1_UxAf90j_M-10" edge="1">
          <mxGeometry width="50" height="50" relative="1" as="geometry">
            <mxPoint x="380" y="420" as="sourcePoint" />
            <mxPoint x="690" y="590" as="targetPoint" />
          </mxGeometry>
        </mxCell>
        <mxCell id="gjNsdtH0i1_UxAf90j_M-23" value="" style="pointerEvents=1;verticalLabelPosition=bottom;shadow=0;dashed=0;align=center;html=1;verticalAlign=top;shape=mxgraph.electrical.waveforms.square_wave;strokeColor=#00FF00;" parent="1" vertex="1">
          <mxGeometry x="470" y="400" width="20" height="20" as="geometry" />
        </mxCell>
        <mxCell id="gjNsdtH0i1_UxAf90j_M-24" value="" style="pointerEvents=1;verticalLabelPosition=bottom;shadow=0;dashed=0;align=center;html=1;verticalAlign=top;shape=mxgraph.electrical.waveforms.sine_wave;strokeColor=#0000FF;" parent="1" vertex="1">
          <mxGeometry x="180" y="584" width="40" height="46" as="geometry" />
        </mxCell>
        <mxCell id="gjNsdtH0i1_UxAf90j_M-25" value="" style="pointerEvents=1;verticalLabelPosition=bottom;shadow=0;dashed=0;align=center;html=1;verticalAlign=top;shape=mxgraph.electrical.miscellaneous.shielded_jack_plug" parent="1" vertex="1">
          <mxGeometry x="230" y="598.5" width="20" height="40" as="geometry" />
        </mxCell>
        <mxCell id="gjNsdtH0i1_UxAf90j_M-26" value="" style="endArrow=none;html=1;rounded=0;entryX=0.25;entryY=1;entryDx=0;entryDy=0;exitX=0.5;exitY=0;exitDx=0;exitDy=0;exitPerimeter=0;strokeColor=#0000FF;strokeWidth=2;" parent="1" source="gjNsdtH0i1_UxAf90j_M-25" target="gjNsdtH0i1_UxAf90j_M-1" edge="1">
          <mxGeometry width="50" height="50" relative="1" as="geometry">
            <mxPoint x="390" y="430" as="sourcePoint" />
            <mxPoint x="430" y="370" as="targetPoint" />
          </mxGeometry>
        </mxCell>
        <mxCell id="gjNsdtH0i1_UxAf90j_M-28" value="AUDIO&lt;div&gt;OUT&lt;/div&gt;" style="edgeLabel;html=1;align=center;verticalAlign=middle;resizable=0;points=[];" parent="gjNsdtH0i1_UxAf90j_M-26" vertex="1" connectable="0">
          <mxGeometry x="-0.2818" y="-1" relative="1" as="geometry">
            <mxPoint as="offset" />
          </mxGeometry>
        </mxCell>
        <mxCell id="gjNsdtH0i1_UxAf90j_M-29" value="" style="verticalLabelPosition=bottom;shadow=0;dashed=0;align=center;html=1;verticalAlign=top;shape=mxgraph.electrical.radio.aerial_-_antenna_1;strokeWidth=3;" parent="1" vertex="1">
          <mxGeometry x="390" y="170" width="50" height="71.5" as="geometry" />
        </mxCell>
        <mxCell id="gjNsdtH0i1_UxAf90j_M-30" value="" style="verticalLabelPosition=bottom;shadow=0;dashed=0;align=center;html=1;verticalAlign=top;shape=mxgraph.electrical.radio.loop_antenna;rotation=-90;strokeWidth=3;" parent="1" vertex="1">
          <mxGeometry x="90" y="210" width="64.8" height="69.78" as="geometry" />
        </mxCell>
        <mxCell id="gjNsdtH0i1_UxAf90j_M-31" value="" style="endArrow=none;html=1;rounded=0;exitX=0.658;exitY=1;exitDx=0;exitDy=0;exitPerimeter=0;entryX=0.005;entryY=0.047;entryDx=0;entryDy=0;entryPerimeter=0;strokeWidth=3;" parent="1" source="gjNsdtH0i1_UxAf90j_M-30" target="gjNsdtH0i1_UxAf90j_M-1" edge="1">
          <mxGeometry width="50" height="50" relative="1" as="geometry">
            <mxPoint x="380" y="350" as="sourcePoint" />
            <mxPoint x="430" y="300" as="targetPoint" />
          </mxGeometry>
        </mxCell>
        <mxCell id="gjNsdtH0i1_UxAf90j_M-32" value="" style="endArrow=none;html=1;rounded=0;entryX=0.986;entryY=0.068;entryDx=0;entryDy=0;exitX=0.5;exitY=1;exitDx=0;exitDy=0;exitPerimeter=0;entryPerimeter=0;strokeWidth=3;" parent="1" source="gjNsdtH0i1_UxAf90j_M-29" target="gjNsdtH0i1_UxAf90j_M-1" edge="1">
          <mxGeometry width="50" height="50" relative="1" as="geometry">
            <mxPoint x="310" y="200" as="sourcePoint" />
            <mxPoint x="430" y="300" as="targetPoint" />
          </mxGeometry>
        </mxCell>
        <mxCell id="gjNsdtH0i1_UxAf90j_M-33" value="&lt;div style=&quot;line-height: 100%;&quot;&gt;&lt;table cellpadding=&quot;4&quot; cellspacing=&quot;0&quot; border=&quot;0&quot; style=&quot;width: 100%; height: 100%;&quot;&gt;&lt;tbody&gt;&lt;tr&gt;&lt;td&gt;&lt;font style=&quot;font-size: 9px;&quot;&gt;VOL&lt;/font&gt;&lt;/td&gt;&lt;/tr&gt;&lt;tr&gt;&lt;td&gt;&lt;font size=&quot;3&quot;&gt;&lt;br&gt;&lt;/font&gt;&lt;/td&gt;&lt;/tr&gt;&lt;/tbody&gt;&lt;/table&gt;&lt;/div&gt;" style="html=1;outlineConnect=0;align=center;dashed=0;aspect=fixed;shape=mxgraph.pid2inst.discInst;mounting=local" parent="1" vertex="1">
          <mxGeometry x="220" y="260" width="40" height="40" as="geometry" />
        </mxCell>
        <mxCell id="gjNsdtH0i1_UxAf90j_M-34" value="&lt;div style=&quot;line-height: 100%;&quot;&gt;&lt;table cellpadding=&quot;4&quot; cellspacing=&quot;0&quot; border=&quot;0&quot; style=&quot;width: 100%; height: 100%;&quot;&gt;&lt;tbody&gt;&lt;tr&gt;&lt;td&gt;&lt;font style=&quot;font-size: 9px;&quot;&gt;PCH&lt;/font&gt;&lt;/td&gt;&lt;/tr&gt;&lt;tr&gt;&lt;td&gt;&lt;font size=&quot;3&quot;&gt;&lt;br&gt;&lt;/font&gt;&lt;/td&gt;&lt;/tr&gt;&lt;/tbody&gt;&lt;/table&gt;&lt;/div&gt;" style="html=1;outlineConnect=0;align=center;dashed=0;aspect=fixed;shape=mxgraph.pid2inst.discInst;mounting=local" parent="1" vertex="1">
          <mxGeometry x="290" y="260" width="40" height="40" as="geometry" />
        </mxCell>
        <mxCell id="gjNsdtH0i1_UxAf90j_M-35" value="&lt;div style=&quot;line-height: 100%;&quot;&gt;&lt;table cellpadding=&quot;4&quot; cellspacing=&quot;0&quot; border=&quot;0&quot; style=&quot;width: 100%; height: 100%;&quot;&gt;&lt;tbody&gt;&lt;tr&gt;&lt;td&gt;&lt;font style=&quot;font-size: 9px;&quot;&gt;REG&lt;/font&gt;&lt;/td&gt;&lt;/tr&gt;&lt;tr&gt;&lt;td&gt;&lt;font size=&quot;3&quot;&gt;&lt;br&gt;&lt;/font&gt;&lt;/td&gt;&lt;/tr&gt;&lt;/tbody&gt;&lt;/table&gt;&lt;/div&gt;" style="html=1;outlineConnect=0;align=center;dashed=0;aspect=fixed;shape=mxgraph.pid2inst.discInst;mounting=local" parent="1" vertex="1">
          <mxGeometry x="220" y="310" width="40" height="40" as="geometry" />
        </mxCell>
        <mxCell id="gjNsdtH0i1_UxAf90j_M-36" value="&lt;div style=&quot;line-height: 100%;&quot;&gt;&lt;table cellpadding=&quot;4&quot; cellspacing=&quot;0&quot; border=&quot;0&quot; style=&quot;width: 100%; height: 100%;&quot;&gt;&lt;tbody&gt;&lt;tr&gt;&lt;td&gt;&lt;font size=&quot;1&quot;&gt;TIM&lt;/font&gt;&lt;/td&gt;&lt;/tr&gt;&lt;tr&gt;&lt;td&gt;&lt;font size=&quot;3&quot;&gt;&lt;br&gt;&lt;/font&gt;&lt;/td&gt;&lt;/tr&gt;&lt;/tbody&gt;&lt;/table&gt;&lt;/div&gt;" style="html=1;outlineConnect=0;align=center;dashed=0;aspect=fixed;shape=mxgraph.pid2inst.discInst;mounting=local" parent="1" vertex="1">
          <mxGeometry x="290" y="310" width="40" height="40" as="geometry" />
        </mxCell>
        <mxCell id="gjNsdtH0i1_UxAf90j_M-38" value="&lt;font style=&quot;color: rgb(0, 0, 0);&quot;&gt;BTN&lt;/font&gt;" style="ellipse;whiteSpace=wrap;html=1;aspect=fixed;shadow=0;fillColor=#B9B9B9;" parent="1" vertex="1">
          <mxGeometry x="220" y="410" width="40" height="40" as="geometry" />
        </mxCell>
        <mxCell id="gjNsdtH0i1_UxAf90j_M-39" value="" style="endArrow=none;html=1;rounded=0;exitX=1.002;exitY=0.879;exitDx=0;exitDy=0;exitPerimeter=0;strokeColor=#FF0000;strokeWidth=2;" parent="1" source="gjNsdtH0i1_UxAf90j_M-1" edge="1">
          <mxGeometry width="50" height="50" relative="1" as="geometry">
            <mxPoint x="380" y="500" as="sourcePoint" />
            <mxPoint x="650" y="500" as="targetPoint" />
          </mxGeometry>
        </mxCell>
        <mxCell id="gjNsdtH0i1_UxAf90j_M-41" value="5V" style="edgeLabel;html=1;align=center;verticalAlign=middle;resizable=0;points=[];" parent="gjNsdtH0i1_UxAf90j_M-39" vertex="1" connectable="0">
          <mxGeometry x="-0.1206" relative="1" as="geometry">
            <mxPoint as="offset" />
          </mxGeometry>
        </mxCell>
        <mxCell id="gjNsdtH0i1_UxAf90j_M-47" value="" style="group" parent="1" vertex="1" connectable="0">
          <mxGeometry x="760" y="571.5" width="58.5" height="58.5" as="geometry" />
        </mxCell>
        <mxCell id="gjNsdtH0i1_UxAf90j_M-12" value="" style="ellipse;whiteSpace=wrap;html=1;aspect=fixed;fillColor=#B9B9B9;" parent="gjNsdtH0i1_UxAf90j_M-47" vertex="1">
          <mxGeometry width="58.5" height="58.5" as="geometry" />
        </mxCell>
        <mxCell id="gjNsdtH0i1_UxAf90j_M-11" value="" style="sketch=0;aspect=fixed;pointerEvents=1;shadow=0;dashed=0;html=1;strokeColor=none;labelPosition=center;verticalLabelPosition=bottom;verticalAlign=top;align=center;fillColor=#00188D;shape=mxgraph.mscae.enterprise.usb" parent="gjNsdtH0i1_UxAf90j_M-47" vertex="1">
          <mxGeometry x="12.1875" y="20.840625" width="36.5625" height="16.818749999999998" as="geometry" />
        </mxCell>
        <mxCell id="gjNsdtH0i1_UxAf90j_M-405" value="" style="group" parent="1" vertex="1" connectable="0">
          <mxGeometry x="500" y="50" width="420" height="100" as="geometry" />
        </mxCell>
        <mxCell id="gjNsdtH0i1_UxAf90j_M-44" value="" style="rounded=1;whiteSpace=wrap;html=1;" parent="gjNsdtH0i1_UxAf90j_M-405" vertex="1">
          <mxGeometry width="420" height="100" as="geometry" />
        </mxCell>
        <mxCell id="gjNsdtH0i1_UxAf90j_M-337" value="" style="ellipse;whiteSpace=wrap;html=1;aspect=fixed;strokeColor=none;fillColor=#330000;container=0;" parent="gjNsdtH0i1_UxAf90j_M-405" vertex="1">
          <mxGeometry x="290" y="10" width="10" height="10" as="geometry" />
        </mxCell>
        <mxCell id="gjNsdtH0i1_UxAf90j_M-50" value="" style="ellipse;whiteSpace=wrap;html=1;aspect=fixed;strokeColor=none;fillColor=#FF0000;container=0;" parent="gjNsdtH0i1_UxAf90j_M-405" vertex="1">
          <mxGeometry x="10" y="39.25" width="10" height="10" as="geometry" />
        </mxCell>
        <mxCell id="gjNsdtH0i1_UxAf90j_M-51" value="" style="ellipse;whiteSpace=wrap;html=1;aspect=fixed;strokeColor=none;fillColor=#FF0000;container=0;" parent="gjNsdtH0i1_UxAf90j_M-405" vertex="1">
          <mxGeometry x="10" y="49.25" width="10" height="10" as="geometry" />
        </mxCell>
        <mxCell id="gjNsdtH0i1_UxAf90j_M-52" value="" style="ellipse;whiteSpace=wrap;html=1;aspect=fixed;strokeColor=none;fillColor=#FF0000;container=0;" parent="gjNsdtH0i1_UxAf90j_M-405" vertex="1">
          <mxGeometry x="10" y="59.25" width="10" height="10" as="geometry" />
        </mxCell>
        <mxCell id="gjNsdtH0i1_UxAf90j_M-53" value="" style="ellipse;whiteSpace=wrap;html=1;aspect=fixed;strokeColor=none;fillColor=#330000;container=0;" parent="gjNsdtH0i1_UxAf90j_M-405" vertex="1">
          <mxGeometry x="10" y="68.5" width="10" height="10" as="geometry" />
        </mxCell>
        <mxCell id="gjNsdtH0i1_UxAf90j_M-54" value="" style="ellipse;whiteSpace=wrap;html=1;aspect=fixed;strokeColor=none;fillColor=#330000;container=0;" parent="gjNsdtH0i1_UxAf90j_M-405" vertex="1">
          <mxGeometry x="10" y="78.5" width="10" height="10" as="geometry" />
        </mxCell>
        <mxCell id="gjNsdtH0i1_UxAf90j_M-55" value="" style="ellipse;whiteSpace=wrap;html=1;aspect=fixed;strokeColor=none;fillColor=#FF0000;container=0;" parent="gjNsdtH0i1_UxAf90j_M-405" vertex="1">
          <mxGeometry x="10" y="30" width="10" height="10" as="geometry" />
        </mxCell>
        <mxCell id="gjNsdtH0i1_UxAf90j_M-58" value="" style="ellipse;whiteSpace=wrap;html=1;aspect=fixed;strokeColor=none;fillColor=#330000;container=0;" parent="gjNsdtH0i1_UxAf90j_M-405" vertex="1">
          <mxGeometry x="20" y="39.25" width="10" height="10" as="geometry" />
        </mxCell>
        <mxCell id="gjNsdtH0i1_UxAf90j_M-59" value="" style="ellipse;whiteSpace=wrap;html=1;aspect=fixed;strokeColor=none;fillColor=#330000;container=0;" parent="gjNsdtH0i1_UxAf90j_M-405" vertex="1">
          <mxGeometry x="20" y="49.25" width="10" height="10" as="geometry" />
        </mxCell>
        <mxCell id="gjNsdtH0i1_UxAf90j_M-60" value="" style="ellipse;whiteSpace=wrap;html=1;aspect=fixed;strokeColor=none;fillColor=#330000;container=0;" parent="gjNsdtH0i1_UxAf90j_M-405" vertex="1">
          <mxGeometry x="20" y="59.25" width="10" height="10" as="geometry" />
        </mxCell>
        <mxCell id="gjNsdtH0i1_UxAf90j_M-61" value="" style="ellipse;whiteSpace=wrap;html=1;aspect=fixed;strokeColor=none;fillColor=#FF0000;container=0;" parent="gjNsdtH0i1_UxAf90j_M-405" vertex="1">
          <mxGeometry x="20" y="68.5" width="10" height="10" as="geometry" />
        </mxCell>
        <mxCell id="gjNsdtH0i1_UxAf90j_M-62" value="" style="ellipse;whiteSpace=wrap;html=1;aspect=fixed;strokeColor=none;fillColor=#330000;container=0;" parent="gjNsdtH0i1_UxAf90j_M-405" vertex="1">
          <mxGeometry x="20" y="78.5" width="10" height="10" as="geometry" />
        </mxCell>
        <mxCell id="gjNsdtH0i1_UxAf90j_M-63" value="" style="ellipse;whiteSpace=wrap;html=1;aspect=fixed;strokeColor=none;fillColor=#330000;container=0;" parent="gjNsdtH0i1_UxAf90j_M-405" vertex="1">
          <mxGeometry x="20" y="30" width="10" height="10" as="geometry" />
        </mxCell>
        <mxCell id="gjNsdtH0i1_UxAf90j_M-65" value="" style="ellipse;whiteSpace=wrap;html=1;aspect=fixed;strokeColor=none;fillColor=#330000;container=0;" parent="gjNsdtH0i1_UxAf90j_M-405" vertex="1">
          <mxGeometry x="30" y="39.25" width="10" height="10" as="geometry" />
        </mxCell>
        <mxCell id="gjNsdtH0i1_UxAf90j_M-66" value="" style="ellipse;whiteSpace=wrap;html=1;aspect=fixed;strokeColor=none;fillColor=#330000;container=0;" parent="gjNsdtH0i1_UxAf90j_M-405" vertex="1">
          <mxGeometry x="30" y="49.25" width="10" height="10" as="geometry" />
        </mxCell>
        <mxCell id="gjNsdtH0i1_UxAf90j_M-67" value="" style="ellipse;whiteSpace=wrap;html=1;aspect=fixed;strokeColor=none;fillColor=#330000;container=0;" parent="gjNsdtH0i1_UxAf90j_M-405" vertex="1">
          <mxGeometry x="30" y="59.25" width="10" height="10" as="geometry" />
        </mxCell>
        <mxCell id="gjNsdtH0i1_UxAf90j_M-68" value="" style="ellipse;whiteSpace=wrap;html=1;aspect=fixed;strokeColor=none;fillColor=#FF0000;container=0;" parent="gjNsdtH0i1_UxAf90j_M-405" vertex="1">
          <mxGeometry x="30" y="68.5" width="10" height="10" as="geometry" />
        </mxCell>
        <mxCell id="gjNsdtH0i1_UxAf90j_M-69" value="" style="ellipse;whiteSpace=wrap;html=1;aspect=fixed;strokeColor=none;fillColor=#330000;container=0;" parent="gjNsdtH0i1_UxAf90j_M-405" vertex="1">
          <mxGeometry x="30" y="78.5" width="10" height="10" as="geometry" />
        </mxCell>
        <mxCell id="gjNsdtH0i1_UxAf90j_M-70" value="" style="ellipse;whiteSpace=wrap;html=1;aspect=fixed;strokeColor=none;fillColor=#330000;container=0;" parent="gjNsdtH0i1_UxAf90j_M-405" vertex="1">
          <mxGeometry x="30" y="30" width="10" height="10" as="geometry" />
        </mxCell>
        <mxCell id="gjNsdtH0i1_UxAf90j_M-72" value="" style="ellipse;whiteSpace=wrap;html=1;aspect=fixed;strokeColor=none;fillColor=#FF0000;container=0;" parent="gjNsdtH0i1_UxAf90j_M-405" vertex="1">
          <mxGeometry x="40" y="39.25" width="10" height="10" as="geometry" />
        </mxCell>
        <mxCell id="gjNsdtH0i1_UxAf90j_M-73" value="" style="ellipse;whiteSpace=wrap;html=1;aspect=fixed;strokeColor=none;fillColor=#FF0000;container=0;" parent="gjNsdtH0i1_UxAf90j_M-405" vertex="1">
          <mxGeometry x="40" y="49.25" width="10" height="10" as="geometry" />
        </mxCell>
        <mxCell id="gjNsdtH0i1_UxAf90j_M-74" value="" style="ellipse;whiteSpace=wrap;html=1;aspect=fixed;strokeColor=none;fillColor=#FF0000;container=0;" parent="gjNsdtH0i1_UxAf90j_M-405" vertex="1">
          <mxGeometry x="40" y="59.25" width="10" height="10" as="geometry" />
        </mxCell>
        <mxCell id="gjNsdtH0i1_UxAf90j_M-75" value="" style="ellipse;whiteSpace=wrap;html=1;aspect=fixed;strokeColor=none;fillColor=#330000;container=0;" parent="gjNsdtH0i1_UxAf90j_M-405" vertex="1">
          <mxGeometry x="40" y="68.5" width="10" height="10" as="geometry" />
        </mxCell>
        <mxCell id="gjNsdtH0i1_UxAf90j_M-76" value="" style="ellipse;whiteSpace=wrap;html=1;aspect=fixed;strokeColor=none;fillColor=#330000;container=0;" parent="gjNsdtH0i1_UxAf90j_M-405" vertex="1">
          <mxGeometry x="40" y="78.5" width="10" height="10" as="geometry" />
        </mxCell>
        <mxCell id="gjNsdtH0i1_UxAf90j_M-77" value="" style="ellipse;whiteSpace=wrap;html=1;aspect=fixed;strokeColor=none;fillColor=#FF0000;container=0;" parent="gjNsdtH0i1_UxAf90j_M-405" vertex="1">
          <mxGeometry x="40" y="30" width="10" height="10" as="geometry" />
        </mxCell>
        <mxCell id="gjNsdtH0i1_UxAf90j_M-79" value="" style="ellipse;whiteSpace=wrap;html=1;aspect=fixed;strokeColor=none;fillColor=#330000;container=0;" parent="gjNsdtH0i1_UxAf90j_M-405" vertex="1">
          <mxGeometry x="50" y="39.25" width="10" height="10" as="geometry" />
        </mxCell>
        <mxCell id="gjNsdtH0i1_UxAf90j_M-80" value="" style="ellipse;whiteSpace=wrap;html=1;aspect=fixed;strokeColor=none;fillColor=#330000;container=0;" parent="gjNsdtH0i1_UxAf90j_M-405" vertex="1">
          <mxGeometry x="50" y="49.25" width="10" height="10" as="geometry" />
        </mxCell>
        <mxCell id="gjNsdtH0i1_UxAf90j_M-81" value="" style="ellipse;whiteSpace=wrap;html=1;aspect=fixed;strokeColor=none;fillColor=#330000;container=0;" parent="gjNsdtH0i1_UxAf90j_M-405" vertex="1">
          <mxGeometry x="50" y="59.25" width="10" height="10" as="geometry" />
        </mxCell>
        <mxCell id="gjNsdtH0i1_UxAf90j_M-82" value="" style="ellipse;whiteSpace=wrap;html=1;aspect=fixed;strokeColor=none;fillColor=#330000;container=0;" parent="gjNsdtH0i1_UxAf90j_M-405" vertex="1">
          <mxGeometry x="50" y="68.5" width="10" height="10" as="geometry" />
        </mxCell>
        <mxCell id="gjNsdtH0i1_UxAf90j_M-83" value="" style="ellipse;whiteSpace=wrap;html=1;aspect=fixed;strokeColor=none;fillColor=#330000;container=0;" parent="gjNsdtH0i1_UxAf90j_M-405" vertex="1">
          <mxGeometry x="50" y="78.5" width="10" height="10" as="geometry" />
        </mxCell>
        <mxCell id="gjNsdtH0i1_UxAf90j_M-84" value="" style="ellipse;whiteSpace=wrap;html=1;aspect=fixed;strokeColor=none;fillColor=#330000;container=0;" parent="gjNsdtH0i1_UxAf90j_M-405" vertex="1">
          <mxGeometry x="50" y="30" width="10" height="10" as="geometry" />
        </mxCell>
        <mxCell id="gjNsdtH0i1_UxAf90j_M-86" value="" style="ellipse;whiteSpace=wrap;html=1;aspect=fixed;strokeColor=none;fillColor=#FF0000;container=0;" parent="gjNsdtH0i1_UxAf90j_M-405" vertex="1">
          <mxGeometry x="60" y="39.25" width="10" height="10" as="geometry" />
        </mxCell>
        <mxCell id="gjNsdtH0i1_UxAf90j_M-87" value="" style="ellipse;whiteSpace=wrap;html=1;aspect=fixed;strokeColor=none;fillColor=#FF0000;container=0;" parent="gjNsdtH0i1_UxAf90j_M-405" vertex="1">
          <mxGeometry x="60" y="49.25" width="10" height="10" as="geometry" />
        </mxCell>
        <mxCell id="gjNsdtH0i1_UxAf90j_M-88" value="" style="ellipse;whiteSpace=wrap;html=1;aspect=fixed;strokeColor=none;fillColor=#FF0000;container=0;" parent="gjNsdtH0i1_UxAf90j_M-405" vertex="1">
          <mxGeometry x="60" y="59.25" width="10" height="10" as="geometry" />
        </mxCell>
        <mxCell id="gjNsdtH0i1_UxAf90j_M-89" value="" style="ellipse;whiteSpace=wrap;html=1;aspect=fixed;strokeColor=none;fillColor=#FF0000;container=0;" parent="gjNsdtH0i1_UxAf90j_M-405" vertex="1">
          <mxGeometry x="60" y="68.5" width="10" height="10" as="geometry" />
        </mxCell>
        <mxCell id="gjNsdtH0i1_UxAf90j_M-90" value="" style="ellipse;whiteSpace=wrap;html=1;aspect=fixed;strokeColor=none;fillColor=#FF0000;container=0;" parent="gjNsdtH0i1_UxAf90j_M-405" vertex="1">
          <mxGeometry x="60" y="78.5" width="10" height="10" as="geometry" />
        </mxCell>
        <mxCell id="gjNsdtH0i1_UxAf90j_M-91" value="" style="ellipse;whiteSpace=wrap;html=1;aspect=fixed;strokeColor=none;fillColor=#330000;container=0;" parent="gjNsdtH0i1_UxAf90j_M-405" vertex="1">
          <mxGeometry x="60" y="30" width="10" height="10" as="geometry" />
        </mxCell>
        <mxCell id="gjNsdtH0i1_UxAf90j_M-93" value="" style="ellipse;whiteSpace=wrap;html=1;aspect=fixed;strokeColor=none;fillColor=#FF0000;container=0;" parent="gjNsdtH0i1_UxAf90j_M-405" vertex="1">
          <mxGeometry x="70" y="39.25" width="10" height="10" as="geometry" />
        </mxCell>
        <mxCell id="gjNsdtH0i1_UxAf90j_M-94" value="" style="ellipse;whiteSpace=wrap;html=1;aspect=fixed;strokeColor=none;fillColor=#330000;container=0;" parent="gjNsdtH0i1_UxAf90j_M-405" vertex="1">
          <mxGeometry x="70" y="49.25" width="10" height="10" as="geometry" />
        </mxCell>
        <mxCell id="gjNsdtH0i1_UxAf90j_M-95" value="" style="ellipse;whiteSpace=wrap;html=1;aspect=fixed;strokeColor=none;fillColor=#330000;container=0;" parent="gjNsdtH0i1_UxAf90j_M-405" vertex="1">
          <mxGeometry x="70" y="59.25" width="10" height="10" as="geometry" />
        </mxCell>
        <mxCell id="gjNsdtH0i1_UxAf90j_M-96" value="" style="ellipse;whiteSpace=wrap;html=1;aspect=fixed;strokeColor=none;fillColor=#FF0000;container=0;" parent="gjNsdtH0i1_UxAf90j_M-405" vertex="1">
          <mxGeometry x="70" y="68.5" width="10" height="10" as="geometry" />
        </mxCell>
        <mxCell id="gjNsdtH0i1_UxAf90j_M-97" value="" style="ellipse;whiteSpace=wrap;html=1;aspect=fixed;strokeColor=none;fillColor=#330000;container=0;" parent="gjNsdtH0i1_UxAf90j_M-405" vertex="1">
          <mxGeometry x="70" y="78.5" width="10" height="10" as="geometry" />
        </mxCell>
        <mxCell id="gjNsdtH0i1_UxAf90j_M-98" value="" style="ellipse;whiteSpace=wrap;html=1;aspect=fixed;strokeColor=none;fillColor=#330000;container=0;" parent="gjNsdtH0i1_UxAf90j_M-405" vertex="1">
          <mxGeometry x="70" y="30" width="10" height="10" as="geometry" />
        </mxCell>
        <mxCell id="gjNsdtH0i1_UxAf90j_M-100" value="" style="ellipse;whiteSpace=wrap;html=1;aspect=fixed;strokeColor=none;fillColor=#330000;container=0;" parent="gjNsdtH0i1_UxAf90j_M-405" vertex="1">
          <mxGeometry x="80" y="39.25" width="10" height="10" as="geometry" />
        </mxCell>
        <mxCell id="gjNsdtH0i1_UxAf90j_M-101" value="" style="ellipse;whiteSpace=wrap;html=1;aspect=fixed;strokeColor=none;fillColor=#FF0000;container=0;" parent="gjNsdtH0i1_UxAf90j_M-405" vertex="1">
          <mxGeometry x="80" y="49.25" width="10" height="10" as="geometry" />
        </mxCell>
        <mxCell id="gjNsdtH0i1_UxAf90j_M-102" value="" style="ellipse;whiteSpace=wrap;html=1;aspect=fixed;strokeColor=none;fillColor=#FF0000;container=0;" parent="gjNsdtH0i1_UxAf90j_M-405" vertex="1">
          <mxGeometry x="80" y="59.25" width="10" height="10" as="geometry" />
        </mxCell>
        <mxCell id="gjNsdtH0i1_UxAf90j_M-103" value="" style="ellipse;whiteSpace=wrap;html=1;aspect=fixed;strokeColor=none;fillColor=#330000;container=0;" parent="gjNsdtH0i1_UxAf90j_M-405" vertex="1">
          <mxGeometry x="80" y="68.5" width="10" height="10" as="geometry" />
        </mxCell>
        <mxCell id="gjNsdtH0i1_UxAf90j_M-104" value="" style="ellipse;whiteSpace=wrap;html=1;aspect=fixed;strokeColor=none;fillColor=#330000;container=0;" parent="gjNsdtH0i1_UxAf90j_M-405" vertex="1">
          <mxGeometry x="80" y="78.5" width="10" height="10" as="geometry" />
        </mxCell>
        <mxCell id="gjNsdtH0i1_UxAf90j_M-105" value="" style="ellipse;whiteSpace=wrap;html=1;aspect=fixed;strokeColor=none;fillColor=#330000;container=0;" parent="gjNsdtH0i1_UxAf90j_M-405" vertex="1">
          <mxGeometry x="80" y="30" width="10" height="10" as="geometry" />
        </mxCell>
        <mxCell id="gjNsdtH0i1_UxAf90j_M-107" value="" style="ellipse;whiteSpace=wrap;html=1;aspect=fixed;strokeColor=none;fillColor=#330000;container=0;" parent="gjNsdtH0i1_UxAf90j_M-405" vertex="1">
          <mxGeometry x="90" y="39.25" width="10" height="10" as="geometry" />
        </mxCell>
        <mxCell id="gjNsdtH0i1_UxAf90j_M-108" value="" style="ellipse;whiteSpace=wrap;html=1;aspect=fixed;strokeColor=none;fillColor=#330000;container=0;" parent="gjNsdtH0i1_UxAf90j_M-405" vertex="1">
          <mxGeometry x="90" y="49.25" width="10" height="10" as="geometry" />
        </mxCell>
        <mxCell id="gjNsdtH0i1_UxAf90j_M-109" value="" style="ellipse;whiteSpace=wrap;html=1;aspect=fixed;strokeColor=none;fillColor=#330000;container=0;" parent="gjNsdtH0i1_UxAf90j_M-405" vertex="1">
          <mxGeometry x="90" y="59.25" width="10" height="10" as="geometry" />
        </mxCell>
        <mxCell id="gjNsdtH0i1_UxAf90j_M-110" value="" style="ellipse;whiteSpace=wrap;html=1;aspect=fixed;strokeColor=none;fillColor=#330000;container=0;" parent="gjNsdtH0i1_UxAf90j_M-405" vertex="1">
          <mxGeometry x="90" y="68.5" width="10" height="10" as="geometry" />
        </mxCell>
        <mxCell id="gjNsdtH0i1_UxAf90j_M-111" value="" style="ellipse;whiteSpace=wrap;html=1;aspect=fixed;strokeColor=none;fillColor=#330000;container=0;" parent="gjNsdtH0i1_UxAf90j_M-405" vertex="1">
          <mxGeometry x="90" y="78.5" width="10" height="10" as="geometry" />
        </mxCell>
        <mxCell id="gjNsdtH0i1_UxAf90j_M-112" value="" style="ellipse;whiteSpace=wrap;html=1;aspect=fixed;strokeColor=none;fillColor=#330000;container=0;" parent="gjNsdtH0i1_UxAf90j_M-405" vertex="1">
          <mxGeometry x="90" y="30" width="10" height="10" as="geometry" />
        </mxCell>
        <mxCell id="gjNsdtH0i1_UxAf90j_M-114" value="" style="ellipse;whiteSpace=wrap;html=1;aspect=fixed;strokeColor=none;fillColor=#FF0000;container=0;" parent="gjNsdtH0i1_UxAf90j_M-405" vertex="1">
          <mxGeometry x="100" y="39.25" width="10" height="10" as="geometry" />
        </mxCell>
        <mxCell id="gjNsdtH0i1_UxAf90j_M-115" value="" style="ellipse;whiteSpace=wrap;html=1;aspect=fixed;strokeColor=none;fillColor=#FF0000;container=0;" parent="gjNsdtH0i1_UxAf90j_M-405" vertex="1">
          <mxGeometry x="100" y="49.25" width="10" height="10" as="geometry" />
        </mxCell>
        <mxCell id="gjNsdtH0i1_UxAf90j_M-116" value="" style="ellipse;whiteSpace=wrap;html=1;aspect=fixed;strokeColor=none;fillColor=#FF0000;container=0;" parent="gjNsdtH0i1_UxAf90j_M-405" vertex="1">
          <mxGeometry x="100" y="59.25" width="10" height="10" as="geometry" />
        </mxCell>
        <mxCell id="gjNsdtH0i1_UxAf90j_M-117" value="" style="ellipse;whiteSpace=wrap;html=1;aspect=fixed;strokeColor=none;fillColor=#330000;container=0;" parent="gjNsdtH0i1_UxAf90j_M-405" vertex="1">
          <mxGeometry x="100" y="68.5" width="10" height="10" as="geometry" />
        </mxCell>
        <mxCell id="gjNsdtH0i1_UxAf90j_M-118" value="" style="ellipse;whiteSpace=wrap;html=1;aspect=fixed;strokeColor=none;fillColor=#330000;container=0;" parent="gjNsdtH0i1_UxAf90j_M-405" vertex="1">
          <mxGeometry x="100" y="78.5" width="10" height="10" as="geometry" />
        </mxCell>
        <mxCell id="gjNsdtH0i1_UxAf90j_M-119" value="" style="ellipse;whiteSpace=wrap;html=1;aspect=fixed;strokeColor=none;fillColor=#330000;container=0;" parent="gjNsdtH0i1_UxAf90j_M-405" vertex="1">
          <mxGeometry x="100" y="30" width="10" height="10" as="geometry" />
        </mxCell>
        <mxCell id="gjNsdtH0i1_UxAf90j_M-122" value="" style="ellipse;whiteSpace=wrap;html=1;aspect=fixed;strokeColor=none;fillColor=#FF0000;container=0;" parent="gjNsdtH0i1_UxAf90j_M-405" vertex="1">
          <mxGeometry x="110" y="39.25" width="10" height="10" as="geometry" />
        </mxCell>
        <mxCell id="gjNsdtH0i1_UxAf90j_M-123" value="" style="ellipse;whiteSpace=wrap;html=1;aspect=fixed;strokeColor=none;fillColor=#330000;container=0;" parent="gjNsdtH0i1_UxAf90j_M-405" vertex="1">
          <mxGeometry x="110" y="49.25" width="10" height="10" as="geometry" />
        </mxCell>
        <mxCell id="gjNsdtH0i1_UxAf90j_M-124" value="" style="ellipse;whiteSpace=wrap;html=1;aspect=fixed;strokeColor=none;fillColor=#FF0000;container=0;" parent="gjNsdtH0i1_UxAf90j_M-405" vertex="1">
          <mxGeometry x="110" y="59.25" width="10" height="10" as="geometry" />
        </mxCell>
        <mxCell id="gjNsdtH0i1_UxAf90j_M-125" value="" style="ellipse;whiteSpace=wrap;html=1;aspect=fixed;strokeColor=none;fillColor=#FF0000;container=0;" parent="gjNsdtH0i1_UxAf90j_M-405" vertex="1">
          <mxGeometry x="110" y="68.5" width="10" height="10" as="geometry" />
        </mxCell>
        <mxCell id="gjNsdtH0i1_UxAf90j_M-126" value="" style="ellipse;whiteSpace=wrap;html=1;aspect=fixed;strokeColor=none;fillColor=#330000;container=0;" parent="gjNsdtH0i1_UxAf90j_M-405" vertex="1">
          <mxGeometry x="110" y="78.5" width="10" height="10" as="geometry" />
        </mxCell>
        <mxCell id="gjNsdtH0i1_UxAf90j_M-127" value="" style="ellipse;whiteSpace=wrap;html=1;aspect=fixed;strokeColor=none;fillColor=#330000;container=0;" parent="gjNsdtH0i1_UxAf90j_M-405" vertex="1">
          <mxGeometry x="110" y="30" width="10" height="10" as="geometry" />
        </mxCell>
        <mxCell id="gjNsdtH0i1_UxAf90j_M-129" value="" style="ellipse;whiteSpace=wrap;html=1;aspect=fixed;strokeColor=none;fillColor=#330000;container=0;" parent="gjNsdtH0i1_UxAf90j_M-405" vertex="1">
          <mxGeometry x="120" y="39.25" width="10" height="10" as="geometry" />
        </mxCell>
        <mxCell id="gjNsdtH0i1_UxAf90j_M-130" value="" style="ellipse;whiteSpace=wrap;html=1;aspect=fixed;strokeColor=none;fillColor=#FF0000;container=0;" parent="gjNsdtH0i1_UxAf90j_M-405" vertex="1">
          <mxGeometry x="120" y="49.25" width="10" height="10" as="geometry" />
        </mxCell>
        <mxCell id="gjNsdtH0i1_UxAf90j_M-131" value="" style="ellipse;whiteSpace=wrap;html=1;aspect=fixed;strokeColor=none;fillColor=#330000;container=0;" parent="gjNsdtH0i1_UxAf90j_M-405" vertex="1">
          <mxGeometry x="120" y="59.25" width="10" height="10" as="geometry" />
        </mxCell>
        <mxCell id="gjNsdtH0i1_UxAf90j_M-132" value="" style="ellipse;whiteSpace=wrap;html=1;aspect=fixed;strokeColor=none;fillColor=#FF0000;container=0;" parent="gjNsdtH0i1_UxAf90j_M-405" vertex="1">
          <mxGeometry x="120" y="68.5" width="10" height="10" as="geometry" />
        </mxCell>
        <mxCell id="gjNsdtH0i1_UxAf90j_M-133" value="" style="ellipse;whiteSpace=wrap;html=1;aspect=fixed;strokeColor=none;fillColor=#330000;container=0;" parent="gjNsdtH0i1_UxAf90j_M-405" vertex="1">
          <mxGeometry x="120" y="78.5" width="10" height="10" as="geometry" />
        </mxCell>
        <mxCell id="gjNsdtH0i1_UxAf90j_M-134" value="" style="ellipse;whiteSpace=wrap;html=1;aspect=fixed;strokeColor=none;fillColor=#330000;container=0;" parent="gjNsdtH0i1_UxAf90j_M-405" vertex="1">
          <mxGeometry x="120" y="30" width="10" height="10" as="geometry" />
        </mxCell>
        <mxCell id="gjNsdtH0i1_UxAf90j_M-136" value="" style="ellipse;whiteSpace=wrap;html=1;aspect=fixed;strokeColor=none;fillColor=#330000;container=0;" parent="gjNsdtH0i1_UxAf90j_M-405" vertex="1">
          <mxGeometry x="130" y="39.25" width="10" height="10" as="geometry" />
        </mxCell>
        <mxCell id="gjNsdtH0i1_UxAf90j_M-137" value="" style="ellipse;whiteSpace=wrap;html=1;aspect=fixed;strokeColor=none;fillColor=#330000;container=0;" parent="gjNsdtH0i1_UxAf90j_M-405" vertex="1">
          <mxGeometry x="130" y="49.25" width="10" height="10" as="geometry" />
        </mxCell>
        <mxCell id="gjNsdtH0i1_UxAf90j_M-138" value="" style="ellipse;whiteSpace=wrap;html=1;aspect=fixed;strokeColor=none;fillColor=#330000;container=0;" parent="gjNsdtH0i1_UxAf90j_M-405" vertex="1">
          <mxGeometry x="130" y="59.25" width="10" height="10" as="geometry" />
        </mxCell>
        <mxCell id="gjNsdtH0i1_UxAf90j_M-139" value="" style="ellipse;whiteSpace=wrap;html=1;aspect=fixed;strokeColor=none;fillColor=#330000;container=0;" parent="gjNsdtH0i1_UxAf90j_M-405" vertex="1">
          <mxGeometry x="130" y="68.5" width="10" height="10" as="geometry" />
        </mxCell>
        <mxCell id="gjNsdtH0i1_UxAf90j_M-140" value="" style="ellipse;whiteSpace=wrap;html=1;aspect=fixed;strokeColor=none;fillColor=#330000;container=0;" parent="gjNsdtH0i1_UxAf90j_M-405" vertex="1">
          <mxGeometry x="130" y="78.5" width="10" height="10" as="geometry" />
        </mxCell>
        <mxCell id="gjNsdtH0i1_UxAf90j_M-141" value="" style="ellipse;whiteSpace=wrap;html=1;aspect=fixed;strokeColor=none;fillColor=#330000;container=0;" parent="gjNsdtH0i1_UxAf90j_M-405" vertex="1">
          <mxGeometry x="130" y="30" width="10" height="10" as="geometry" />
        </mxCell>
        <mxCell id="gjNsdtH0i1_UxAf90j_M-143" value="" style="ellipse;whiteSpace=wrap;html=1;aspect=fixed;strokeColor=none;fillColor=#FF0000;container=0;" parent="gjNsdtH0i1_UxAf90j_M-405" vertex="1">
          <mxGeometry x="140" y="39.25" width="10" height="10" as="geometry" />
        </mxCell>
        <mxCell id="gjNsdtH0i1_UxAf90j_M-144" value="" style="ellipse;whiteSpace=wrap;html=1;aspect=fixed;strokeColor=none;fillColor=#FF0000;container=0;" parent="gjNsdtH0i1_UxAf90j_M-405" vertex="1">
          <mxGeometry x="140" y="49.25" width="10" height="10" as="geometry" />
        </mxCell>
        <mxCell id="gjNsdtH0i1_UxAf90j_M-145" value="" style="ellipse;whiteSpace=wrap;html=1;aspect=fixed;strokeColor=none;fillColor=#FF0000;container=0;" parent="gjNsdtH0i1_UxAf90j_M-405" vertex="1">
          <mxGeometry x="140" y="59.25" width="10" height="10" as="geometry" />
        </mxCell>
        <mxCell id="gjNsdtH0i1_UxAf90j_M-146" value="" style="ellipse;whiteSpace=wrap;html=1;aspect=fixed;strokeColor=none;fillColor=#FF0000;container=0;" parent="gjNsdtH0i1_UxAf90j_M-405" vertex="1">
          <mxGeometry x="140" y="68.5" width="10" height="10" as="geometry" />
        </mxCell>
        <mxCell id="gjNsdtH0i1_UxAf90j_M-147" value="" style="ellipse;whiteSpace=wrap;html=1;aspect=fixed;strokeColor=none;fillColor=#330000;container=0;" parent="gjNsdtH0i1_UxAf90j_M-405" vertex="1">
          <mxGeometry x="140" y="78.5" width="10" height="10" as="geometry" />
        </mxCell>
        <mxCell id="gjNsdtH0i1_UxAf90j_M-148" value="" style="ellipse;whiteSpace=wrap;html=1;aspect=fixed;strokeColor=none;fillColor=#330000;container=0;" parent="gjNsdtH0i1_UxAf90j_M-405" vertex="1">
          <mxGeometry x="140" y="30" width="10" height="10" as="geometry" />
        </mxCell>
        <mxCell id="gjNsdtH0i1_UxAf90j_M-150" value="" style="ellipse;whiteSpace=wrap;html=1;aspect=fixed;strokeColor=none;fillColor=#FF0000;container=0;" parent="gjNsdtH0i1_UxAf90j_M-405" vertex="1">
          <mxGeometry x="150" y="39.25" width="10" height="10" as="geometry" />
        </mxCell>
        <mxCell id="gjNsdtH0i1_UxAf90j_M-151" value="" style="ellipse;whiteSpace=wrap;html=1;aspect=fixed;strokeColor=none;fillColor=#330000;container=0;" parent="gjNsdtH0i1_UxAf90j_M-405" vertex="1">
          <mxGeometry x="150" y="49.25" width="10" height="10" as="geometry" />
        </mxCell>
        <mxCell id="gjNsdtH0i1_UxAf90j_M-152" value="" style="ellipse;whiteSpace=wrap;html=1;aspect=fixed;strokeColor=none;fillColor=#330000;container=0;" parent="gjNsdtH0i1_UxAf90j_M-405" vertex="1">
          <mxGeometry x="150" y="59.25" width="10" height="10" as="geometry" />
        </mxCell>
        <mxCell id="gjNsdtH0i1_UxAf90j_M-153" value="" style="ellipse;whiteSpace=wrap;html=1;aspect=fixed;strokeColor=none;fillColor=#330000;container=0;" parent="gjNsdtH0i1_UxAf90j_M-405" vertex="1">
          <mxGeometry x="150" y="68.5" width="10" height="10" as="geometry" />
        </mxCell>
        <mxCell id="gjNsdtH0i1_UxAf90j_M-154" value="" style="ellipse;whiteSpace=wrap;html=1;aspect=fixed;strokeColor=none;fillColor=#330000;container=0;" parent="gjNsdtH0i1_UxAf90j_M-405" vertex="1">
          <mxGeometry x="150" y="78.5" width="10" height="10" as="geometry" />
        </mxCell>
        <mxCell id="gjNsdtH0i1_UxAf90j_M-155" value="" style="ellipse;whiteSpace=wrap;html=1;aspect=fixed;strokeColor=none;fillColor=#330000;container=0;" parent="gjNsdtH0i1_UxAf90j_M-405" vertex="1">
          <mxGeometry x="150" y="30" width="10" height="10" as="geometry" />
        </mxCell>
        <mxCell id="gjNsdtH0i1_UxAf90j_M-157" value="" style="ellipse;whiteSpace=wrap;html=1;aspect=fixed;strokeColor=none;fillColor=#330000;container=0;" parent="gjNsdtH0i1_UxAf90j_M-405" vertex="1">
          <mxGeometry x="160" y="39.25" width="10" height="10" as="geometry" />
        </mxCell>
        <mxCell id="gjNsdtH0i1_UxAf90j_M-158" value="" style="ellipse;whiteSpace=wrap;html=1;aspect=fixed;strokeColor=none;fillColor=#FF0000;container=0;" parent="gjNsdtH0i1_UxAf90j_M-405" vertex="1">
          <mxGeometry x="160" y="49.25" width="10" height="10" as="geometry" />
        </mxCell>
        <mxCell id="gjNsdtH0i1_UxAf90j_M-159" value="" style="ellipse;whiteSpace=wrap;html=1;aspect=fixed;strokeColor=none;fillColor=#FF0000;container=0;" parent="gjNsdtH0i1_UxAf90j_M-405" vertex="1">
          <mxGeometry x="160" y="59.25" width="10" height="10" as="geometry" />
        </mxCell>
        <mxCell id="gjNsdtH0i1_UxAf90j_M-160" value="" style="ellipse;whiteSpace=wrap;html=1;aspect=fixed;strokeColor=none;fillColor=#FF0000;container=0;" parent="gjNsdtH0i1_UxAf90j_M-405" vertex="1">
          <mxGeometry x="160" y="68.5" width="10" height="10" as="geometry" />
        </mxCell>
        <mxCell id="gjNsdtH0i1_UxAf90j_M-161" value="" style="ellipse;whiteSpace=wrap;html=1;aspect=fixed;strokeColor=none;fillColor=#330000;container=0;" parent="gjNsdtH0i1_UxAf90j_M-405" vertex="1">
          <mxGeometry x="160" y="78.5" width="10" height="10" as="geometry" />
        </mxCell>
        <mxCell id="gjNsdtH0i1_UxAf90j_M-162" value="" style="ellipse;whiteSpace=wrap;html=1;aspect=fixed;strokeColor=none;fillColor=#330000;container=0;" parent="gjNsdtH0i1_UxAf90j_M-405" vertex="1">
          <mxGeometry x="160" y="30" width="10" height="10" as="geometry" />
        </mxCell>
        <mxCell id="gjNsdtH0i1_UxAf90j_M-164" value="" style="ellipse;whiteSpace=wrap;html=1;aspect=fixed;strokeColor=none;fillColor=#330000;container=0;" parent="gjNsdtH0i1_UxAf90j_M-405" vertex="1">
          <mxGeometry x="170" y="39.25" width="10" height="10" as="geometry" />
        </mxCell>
        <mxCell id="gjNsdtH0i1_UxAf90j_M-165" value="" style="ellipse;whiteSpace=wrap;html=1;aspect=fixed;strokeColor=none;fillColor=#330000;container=0;" parent="gjNsdtH0i1_UxAf90j_M-405" vertex="1">
          <mxGeometry x="170" y="49.25" width="10" height="10" as="geometry" />
        </mxCell>
        <mxCell id="gjNsdtH0i1_UxAf90j_M-166" value="" style="ellipse;whiteSpace=wrap;html=1;aspect=fixed;strokeColor=none;fillColor=#330000;container=0;" parent="gjNsdtH0i1_UxAf90j_M-405" vertex="1">
          <mxGeometry x="170" y="59.25" width="10" height="10" as="geometry" />
        </mxCell>
        <mxCell id="gjNsdtH0i1_UxAf90j_M-167" value="" style="ellipse;whiteSpace=wrap;html=1;aspect=fixed;strokeColor=none;fillColor=#330000;container=0;" parent="gjNsdtH0i1_UxAf90j_M-405" vertex="1">
          <mxGeometry x="170" y="68.5" width="10" height="10" as="geometry" />
        </mxCell>
        <mxCell id="gjNsdtH0i1_UxAf90j_M-168" value="" style="ellipse;whiteSpace=wrap;html=1;aspect=fixed;strokeColor=none;fillColor=#330000;container=0;" parent="gjNsdtH0i1_UxAf90j_M-405" vertex="1">
          <mxGeometry x="170" y="78.5" width="10" height="10" as="geometry" />
        </mxCell>
        <mxCell id="gjNsdtH0i1_UxAf90j_M-169" value="" style="ellipse;whiteSpace=wrap;html=1;aspect=fixed;strokeColor=none;fillColor=#FF0000;container=0;" parent="gjNsdtH0i1_UxAf90j_M-405" vertex="1">
          <mxGeometry x="170" y="30" width="10" height="10" as="geometry" />
        </mxCell>
        <mxCell id="gjNsdtH0i1_UxAf90j_M-171" value="" style="ellipse;whiteSpace=wrap;html=1;aspect=fixed;strokeColor=none;fillColor=#FF0000;container=0;" parent="gjNsdtH0i1_UxAf90j_M-405" vertex="1">
          <mxGeometry x="180" y="39.25" width="10" height="10" as="geometry" />
        </mxCell>
        <mxCell id="gjNsdtH0i1_UxAf90j_M-172" value="" style="ellipse;whiteSpace=wrap;html=1;aspect=fixed;strokeColor=none;fillColor=#FF0000;container=0;" parent="gjNsdtH0i1_UxAf90j_M-405" vertex="1">
          <mxGeometry x="180" y="49.25" width="10" height="10" as="geometry" />
        </mxCell>
        <mxCell id="gjNsdtH0i1_UxAf90j_M-173" value="" style="ellipse;whiteSpace=wrap;html=1;aspect=fixed;strokeColor=none;fillColor=#FF0000;container=0;" parent="gjNsdtH0i1_UxAf90j_M-405" vertex="1">
          <mxGeometry x="180" y="59.25" width="10" height="10" as="geometry" />
        </mxCell>
        <mxCell id="gjNsdtH0i1_UxAf90j_M-174" value="" style="ellipse;whiteSpace=wrap;html=1;aspect=fixed;strokeColor=none;fillColor=#FF0000;container=0;" parent="gjNsdtH0i1_UxAf90j_M-405" vertex="1">
          <mxGeometry x="180" y="68.5" width="10" height="10" as="geometry" />
        </mxCell>
        <mxCell id="gjNsdtH0i1_UxAf90j_M-175" value="" style="ellipse;whiteSpace=wrap;html=1;aspect=fixed;strokeColor=none;fillColor=#330000;container=0;" parent="gjNsdtH0i1_UxAf90j_M-405" vertex="1">
          <mxGeometry x="180" y="78.5" width="10" height="10" as="geometry" />
        </mxCell>
        <mxCell id="gjNsdtH0i1_UxAf90j_M-176" value="" style="ellipse;whiteSpace=wrap;html=1;aspect=fixed;strokeColor=none;fillColor=#FF0000;container=0;" parent="gjNsdtH0i1_UxAf90j_M-405" vertex="1">
          <mxGeometry x="180" y="30" width="10" height="10" as="geometry" />
        </mxCell>
        <mxCell id="gjNsdtH0i1_UxAf90j_M-178" value="" style="ellipse;whiteSpace=wrap;html=1;aspect=fixed;strokeColor=none;fillColor=#330000;container=0;" parent="gjNsdtH0i1_UxAf90j_M-405" vertex="1">
          <mxGeometry x="190" y="39.25" width="10" height="10" as="geometry" />
        </mxCell>
        <mxCell id="gjNsdtH0i1_UxAf90j_M-179" value="" style="ellipse;whiteSpace=wrap;html=1;aspect=fixed;strokeColor=none;fillColor=#330000;container=0;" parent="gjNsdtH0i1_UxAf90j_M-405" vertex="1">
          <mxGeometry x="190" y="49.25" width="10" height="10" as="geometry" />
        </mxCell>
        <mxCell id="gjNsdtH0i1_UxAf90j_M-180" value="" style="ellipse;whiteSpace=wrap;html=1;aspect=fixed;strokeColor=none;fillColor=#330000;container=0;" parent="gjNsdtH0i1_UxAf90j_M-405" vertex="1">
          <mxGeometry x="190" y="59.25" width="10" height="10" as="geometry" />
        </mxCell>
        <mxCell id="gjNsdtH0i1_UxAf90j_M-181" value="" style="ellipse;whiteSpace=wrap;html=1;aspect=fixed;strokeColor=none;fillColor=#330000;container=0;" parent="gjNsdtH0i1_UxAf90j_M-405" vertex="1">
          <mxGeometry x="190" y="68.5" width="10" height="10" as="geometry" />
        </mxCell>
        <mxCell id="gjNsdtH0i1_UxAf90j_M-182" value="" style="ellipse;whiteSpace=wrap;html=1;aspect=fixed;strokeColor=none;fillColor=#330000;container=0;" parent="gjNsdtH0i1_UxAf90j_M-405" vertex="1">
          <mxGeometry x="190" y="78.5" width="10" height="10" as="geometry" />
        </mxCell>
        <mxCell id="gjNsdtH0i1_UxAf90j_M-183" value="" style="ellipse;whiteSpace=wrap;html=1;aspect=fixed;strokeColor=none;fillColor=#FF0000;container=0;" parent="gjNsdtH0i1_UxAf90j_M-405" vertex="1">
          <mxGeometry x="190" y="30" width="10" height="10" as="geometry" />
        </mxCell>
        <mxCell id="gjNsdtH0i1_UxAf90j_M-185" value="" style="ellipse;whiteSpace=wrap;html=1;aspect=fixed;strokeColor=none;fillColor=#FF0000;container=0;" parent="gjNsdtH0i1_UxAf90j_M-405" vertex="1">
          <mxGeometry x="200" y="39.25" width="10" height="10" as="geometry" />
        </mxCell>
        <mxCell id="gjNsdtH0i1_UxAf90j_M-186" value="" style="ellipse;whiteSpace=wrap;html=1;aspect=fixed;strokeColor=none;fillColor=#FF0000;container=0;" parent="gjNsdtH0i1_UxAf90j_M-405" vertex="1">
          <mxGeometry x="200" y="49.25" width="10" height="10" as="geometry" />
        </mxCell>
        <mxCell id="gjNsdtH0i1_UxAf90j_M-187" value="" style="ellipse;whiteSpace=wrap;html=1;aspect=fixed;strokeColor=none;fillColor=#FF0000;container=0;" parent="gjNsdtH0i1_UxAf90j_M-405" vertex="1">
          <mxGeometry x="200" y="59.25" width="10" height="10" as="geometry" />
        </mxCell>
        <mxCell id="gjNsdtH0i1_UxAf90j_M-188" value="" style="ellipse;whiteSpace=wrap;html=1;aspect=fixed;strokeColor=none;fillColor=#330000;container=0;" parent="gjNsdtH0i1_UxAf90j_M-405" vertex="1">
          <mxGeometry x="200" y="68.5" width="10" height="10" as="geometry" />
        </mxCell>
        <mxCell id="gjNsdtH0i1_UxAf90j_M-189" value="" style="ellipse;whiteSpace=wrap;html=1;aspect=fixed;strokeColor=none;fillColor=#330000;container=0;" parent="gjNsdtH0i1_UxAf90j_M-405" vertex="1">
          <mxGeometry x="200" y="78.5" width="10" height="10" as="geometry" />
        </mxCell>
        <mxCell id="gjNsdtH0i1_UxAf90j_M-190" value="" style="ellipse;whiteSpace=wrap;html=1;aspect=fixed;strokeColor=none;fillColor=#330000;container=0;" parent="gjNsdtH0i1_UxAf90j_M-405" vertex="1">
          <mxGeometry x="200" y="30" width="10" height="10" as="geometry" />
        </mxCell>
        <mxCell id="gjNsdtH0i1_UxAf90j_M-192" value="" style="ellipse;whiteSpace=wrap;html=1;aspect=fixed;strokeColor=none;fillColor=#FF0000;container=0;" parent="gjNsdtH0i1_UxAf90j_M-405" vertex="1">
          <mxGeometry x="210" y="39.25" width="10" height="10" as="geometry" />
        </mxCell>
        <mxCell id="gjNsdtH0i1_UxAf90j_M-193" value="" style="ellipse;whiteSpace=wrap;html=1;aspect=fixed;strokeColor=none;fillColor=#330000;container=0;" parent="gjNsdtH0i1_UxAf90j_M-405" vertex="1">
          <mxGeometry x="210" y="49.25" width="10" height="10" as="geometry" />
        </mxCell>
        <mxCell id="gjNsdtH0i1_UxAf90j_M-194" value="" style="ellipse;whiteSpace=wrap;html=1;aspect=fixed;strokeColor=none;fillColor=#FF0000;container=0;" parent="gjNsdtH0i1_UxAf90j_M-405" vertex="1">
          <mxGeometry x="210" y="59.25" width="10" height="10" as="geometry" />
        </mxCell>
        <mxCell id="gjNsdtH0i1_UxAf90j_M-195" value="" style="ellipse;whiteSpace=wrap;html=1;aspect=fixed;strokeColor=none;fillColor=#FF0000;container=0;" parent="gjNsdtH0i1_UxAf90j_M-405" vertex="1">
          <mxGeometry x="210" y="68.5" width="10" height="10" as="geometry" />
        </mxCell>
        <mxCell id="gjNsdtH0i1_UxAf90j_M-196" value="" style="ellipse;whiteSpace=wrap;html=1;aspect=fixed;strokeColor=none;fillColor=#330000;container=0;" parent="gjNsdtH0i1_UxAf90j_M-405" vertex="1">
          <mxGeometry x="210" y="78.5" width="10" height="10" as="geometry" />
        </mxCell>
        <mxCell id="gjNsdtH0i1_UxAf90j_M-197" value="" style="ellipse;whiteSpace=wrap;html=1;aspect=fixed;strokeColor=none;fillColor=#330000;container=0;" parent="gjNsdtH0i1_UxAf90j_M-405" vertex="1">
          <mxGeometry x="210" y="30" width="10" height="10" as="geometry" />
        </mxCell>
        <mxCell id="gjNsdtH0i1_UxAf90j_M-199" value="" style="ellipse;whiteSpace=wrap;html=1;aspect=fixed;strokeColor=none;fillColor=#330000;container=0;" parent="gjNsdtH0i1_UxAf90j_M-405" vertex="1">
          <mxGeometry x="220" y="39.25" width="10" height="10" as="geometry" />
        </mxCell>
        <mxCell id="gjNsdtH0i1_UxAf90j_M-200" value="" style="ellipse;whiteSpace=wrap;html=1;aspect=fixed;strokeColor=none;fillColor=#FF0000;container=0;" parent="gjNsdtH0i1_UxAf90j_M-405" vertex="1">
          <mxGeometry x="220" y="49.25" width="10" height="10" as="geometry" />
        </mxCell>
        <mxCell id="gjNsdtH0i1_UxAf90j_M-201" value="" style="ellipse;whiteSpace=wrap;html=1;aspect=fixed;strokeColor=none;fillColor=#330000;container=0;" parent="gjNsdtH0i1_UxAf90j_M-405" vertex="1">
          <mxGeometry x="220" y="59.25" width="10" height="10" as="geometry" />
        </mxCell>
        <mxCell id="gjNsdtH0i1_UxAf90j_M-202" value="" style="ellipse;whiteSpace=wrap;html=1;aspect=fixed;strokeColor=none;fillColor=#FF0000;container=0;" parent="gjNsdtH0i1_UxAf90j_M-405" vertex="1">
          <mxGeometry x="220" y="68.5" width="10" height="10" as="geometry" />
        </mxCell>
        <mxCell id="gjNsdtH0i1_UxAf90j_M-203" value="" style="ellipse;whiteSpace=wrap;html=1;aspect=fixed;strokeColor=none;fillColor=#330000;container=0;" parent="gjNsdtH0i1_UxAf90j_M-405" vertex="1">
          <mxGeometry x="220" y="78.5" width="10" height="10" as="geometry" />
        </mxCell>
        <mxCell id="gjNsdtH0i1_UxAf90j_M-204" value="" style="ellipse;whiteSpace=wrap;html=1;aspect=fixed;strokeColor=none;fillColor=#330000;container=0;" parent="gjNsdtH0i1_UxAf90j_M-405" vertex="1">
          <mxGeometry x="220" y="30" width="10" height="10" as="geometry" />
        </mxCell>
        <mxCell id="gjNsdtH0i1_UxAf90j_M-206" value="" style="ellipse;whiteSpace=wrap;html=1;aspect=fixed;strokeColor=none;fillColor=#330000;container=0;" parent="gjNsdtH0i1_UxAf90j_M-405" vertex="1">
          <mxGeometry x="230" y="39.25" width="10" height="10" as="geometry" />
        </mxCell>
        <mxCell id="gjNsdtH0i1_UxAf90j_M-207" value="" style="ellipse;whiteSpace=wrap;html=1;aspect=fixed;strokeColor=none;fillColor=#330000;container=0;" parent="gjNsdtH0i1_UxAf90j_M-405" vertex="1">
          <mxGeometry x="230" y="49.25" width="10" height="10" as="geometry" />
        </mxCell>
        <mxCell id="gjNsdtH0i1_UxAf90j_M-208" value="" style="ellipse;whiteSpace=wrap;html=1;aspect=fixed;strokeColor=none;fillColor=#330000;container=0;" parent="gjNsdtH0i1_UxAf90j_M-405" vertex="1">
          <mxGeometry x="230" y="59.25" width="10" height="10" as="geometry" />
        </mxCell>
        <mxCell id="gjNsdtH0i1_UxAf90j_M-209" value="" style="ellipse;whiteSpace=wrap;html=1;aspect=fixed;strokeColor=none;fillColor=#330000;container=0;" parent="gjNsdtH0i1_UxAf90j_M-405" vertex="1">
          <mxGeometry x="230" y="68.5" width="10" height="10" as="geometry" />
        </mxCell>
        <mxCell id="gjNsdtH0i1_UxAf90j_M-210" value="" style="ellipse;whiteSpace=wrap;html=1;aspect=fixed;strokeColor=none;fillColor=#330000;container=0;" parent="gjNsdtH0i1_UxAf90j_M-405" vertex="1">
          <mxGeometry x="230" y="78.5" width="10" height="10" as="geometry" />
        </mxCell>
        <mxCell id="gjNsdtH0i1_UxAf90j_M-211" value="" style="ellipse;whiteSpace=wrap;html=1;aspect=fixed;strokeColor=none;fillColor=#330000;container=0;" parent="gjNsdtH0i1_UxAf90j_M-405" vertex="1">
          <mxGeometry x="230" y="30" width="10" height="10" as="geometry" />
        </mxCell>
        <mxCell id="gjNsdtH0i1_UxAf90j_M-213" value="" style="ellipse;whiteSpace=wrap;html=1;aspect=fixed;strokeColor=none;fillColor=#FF0000;container=0;" parent="gjNsdtH0i1_UxAf90j_M-405" vertex="1">
          <mxGeometry x="240" y="39.25" width="10" height="10" as="geometry" />
        </mxCell>
        <mxCell id="gjNsdtH0i1_UxAf90j_M-214" value="" style="ellipse;whiteSpace=wrap;html=1;aspect=fixed;strokeColor=none;fillColor=#FF0000;container=0;" parent="gjNsdtH0i1_UxAf90j_M-405" vertex="1">
          <mxGeometry x="240" y="49.25" width="10" height="10" as="geometry" />
        </mxCell>
        <mxCell id="gjNsdtH0i1_UxAf90j_M-215" value="" style="ellipse;whiteSpace=wrap;html=1;aspect=fixed;strokeColor=none;fillColor=#FF0000;container=0;" parent="gjNsdtH0i1_UxAf90j_M-405" vertex="1">
          <mxGeometry x="240" y="59.25" width="10" height="10" as="geometry" />
        </mxCell>
        <mxCell id="gjNsdtH0i1_UxAf90j_M-216" value="" style="ellipse;whiteSpace=wrap;html=1;aspect=fixed;strokeColor=none;fillColor=#FF0000;container=0;" parent="gjNsdtH0i1_UxAf90j_M-405" vertex="1">
          <mxGeometry x="240" y="68.5" width="10" height="10" as="geometry" />
        </mxCell>
        <mxCell id="gjNsdtH0i1_UxAf90j_M-217" value="" style="ellipse;whiteSpace=wrap;html=1;aspect=fixed;strokeColor=none;fillColor=#FF0000;container=0;" parent="gjNsdtH0i1_UxAf90j_M-405" vertex="1">
          <mxGeometry x="240" y="78.5" width="10" height="10" as="geometry" />
        </mxCell>
        <mxCell id="gjNsdtH0i1_UxAf90j_M-218" value="" style="ellipse;whiteSpace=wrap;html=1;aspect=fixed;strokeColor=none;fillColor=#330000;container=0;" parent="gjNsdtH0i1_UxAf90j_M-405" vertex="1">
          <mxGeometry x="240" y="30" width="10" height="10" as="geometry" />
        </mxCell>
        <mxCell id="gjNsdtH0i1_UxAf90j_M-222" value="" style="ellipse;whiteSpace=wrap;html=1;aspect=fixed;strokeColor=none;fillColor=#FF0000;container=0;" parent="gjNsdtH0i1_UxAf90j_M-405" vertex="1">
          <mxGeometry x="250" y="39.25" width="10" height="10" as="geometry" />
        </mxCell>
        <mxCell id="gjNsdtH0i1_UxAf90j_M-223" value="" style="ellipse;whiteSpace=wrap;html=1;aspect=fixed;strokeColor=none;fillColor=#330000;container=0;" parent="gjNsdtH0i1_UxAf90j_M-405" vertex="1">
          <mxGeometry x="250" y="49.25" width="10" height="10" as="geometry" />
        </mxCell>
        <mxCell id="gjNsdtH0i1_UxAf90j_M-224" value="" style="ellipse;whiteSpace=wrap;html=1;aspect=fixed;strokeColor=none;fillColor=#330000;container=0;" parent="gjNsdtH0i1_UxAf90j_M-405" vertex="1">
          <mxGeometry x="250" y="59.25" width="10" height="10" as="geometry" />
        </mxCell>
        <mxCell id="gjNsdtH0i1_UxAf90j_M-225" value="" style="ellipse;whiteSpace=wrap;html=1;aspect=fixed;strokeColor=none;fillColor=#FF0000;container=0;" parent="gjNsdtH0i1_UxAf90j_M-405" vertex="1">
          <mxGeometry x="250" y="68.5" width="10" height="10" as="geometry" />
        </mxCell>
        <mxCell id="gjNsdtH0i1_UxAf90j_M-226" value="" style="ellipse;whiteSpace=wrap;html=1;aspect=fixed;strokeColor=none;fillColor=#330000;container=0;" parent="gjNsdtH0i1_UxAf90j_M-405" vertex="1">
          <mxGeometry x="250" y="78.5" width="10" height="10" as="geometry" />
        </mxCell>
        <mxCell id="gjNsdtH0i1_UxAf90j_M-227" value="" style="ellipse;whiteSpace=wrap;html=1;aspect=fixed;strokeColor=none;fillColor=#330000;container=0;" parent="gjNsdtH0i1_UxAf90j_M-405" vertex="1">
          <mxGeometry x="250" y="30" width="10" height="10" as="geometry" />
        </mxCell>
        <mxCell id="gjNsdtH0i1_UxAf90j_M-229" value="" style="ellipse;whiteSpace=wrap;html=1;aspect=fixed;strokeColor=none;fillColor=#330000;container=0;" parent="gjNsdtH0i1_UxAf90j_M-405" vertex="1">
          <mxGeometry x="260" y="39.25" width="10" height="10" as="geometry" />
        </mxCell>
        <mxCell id="gjNsdtH0i1_UxAf90j_M-230" value="" style="ellipse;whiteSpace=wrap;html=1;aspect=fixed;strokeColor=none;fillColor=#FF0000;container=0;" parent="gjNsdtH0i1_UxAf90j_M-405" vertex="1">
          <mxGeometry x="260" y="50" width="9.25" height="9.25" as="geometry" />
        </mxCell>
        <mxCell id="gjNsdtH0i1_UxAf90j_M-231" value="" style="ellipse;whiteSpace=wrap;html=1;aspect=fixed;strokeColor=none;fillColor=#FF0000;container=0;" parent="gjNsdtH0i1_UxAf90j_M-405" vertex="1">
          <mxGeometry x="260" y="59.25" width="10" height="10" as="geometry" />
        </mxCell>
        <mxCell id="gjNsdtH0i1_UxAf90j_M-232" value="" style="ellipse;whiteSpace=wrap;html=1;aspect=fixed;strokeColor=none;fillColor=#330000;container=0;" parent="gjNsdtH0i1_UxAf90j_M-405" vertex="1">
          <mxGeometry x="260" y="68.5" width="10" height="10" as="geometry" />
        </mxCell>
        <mxCell id="gjNsdtH0i1_UxAf90j_M-233" value="" style="ellipse;whiteSpace=wrap;html=1;aspect=fixed;strokeColor=none;fillColor=#330000;container=0;" parent="gjNsdtH0i1_UxAf90j_M-405" vertex="1">
          <mxGeometry x="260" y="78.5" width="10" height="10" as="geometry" />
        </mxCell>
        <mxCell id="gjNsdtH0i1_UxAf90j_M-234" value="" style="ellipse;whiteSpace=wrap;html=1;aspect=fixed;strokeColor=none;fillColor=#330000;container=0;" parent="gjNsdtH0i1_UxAf90j_M-405" vertex="1">
          <mxGeometry x="260" y="30" width="10" height="10" as="geometry" />
        </mxCell>
        <mxCell id="gjNsdtH0i1_UxAf90j_M-236" value="" style="ellipse;whiteSpace=wrap;html=1;aspect=fixed;strokeColor=none;fillColor=#330000;container=0;" parent="gjNsdtH0i1_UxAf90j_M-405" vertex="1">
          <mxGeometry x="270" y="39.25" width="10" height="10" as="geometry" />
        </mxCell>
        <mxCell id="gjNsdtH0i1_UxAf90j_M-237" value="" style="ellipse;whiteSpace=wrap;html=1;aspect=fixed;strokeColor=none;fillColor=#330000;container=0;" parent="gjNsdtH0i1_UxAf90j_M-405" vertex="1">
          <mxGeometry x="270" y="49.25" width="10" height="10" as="geometry" />
        </mxCell>
        <mxCell id="gjNsdtH0i1_UxAf90j_M-238" value="" style="ellipse;whiteSpace=wrap;html=1;aspect=fixed;strokeColor=none;fillColor=#330000;container=0;" parent="gjNsdtH0i1_UxAf90j_M-405" vertex="1">
          <mxGeometry x="270" y="59.25" width="10" height="10" as="geometry" />
        </mxCell>
        <mxCell id="gjNsdtH0i1_UxAf90j_M-239" value="" style="ellipse;whiteSpace=wrap;html=1;aspect=fixed;strokeColor=none;fillColor=#330000;container=0;" parent="gjNsdtH0i1_UxAf90j_M-405" vertex="1">
          <mxGeometry x="270" y="68.5" width="10" height="10" as="geometry" />
        </mxCell>
        <mxCell id="gjNsdtH0i1_UxAf90j_M-240" value="" style="ellipse;whiteSpace=wrap;html=1;aspect=fixed;strokeColor=none;fillColor=#330000;container=0;" parent="gjNsdtH0i1_UxAf90j_M-405" vertex="1">
          <mxGeometry x="270" y="78.5" width="10" height="10" as="geometry" />
        </mxCell>
        <mxCell id="gjNsdtH0i1_UxAf90j_M-241" value="" style="ellipse;whiteSpace=wrap;html=1;aspect=fixed;strokeColor=none;fillColor=#330000;container=0;" parent="gjNsdtH0i1_UxAf90j_M-405" vertex="1">
          <mxGeometry x="270" y="30" width="10" height="10" as="geometry" />
        </mxCell>
        <mxCell id="gjNsdtH0i1_UxAf90j_M-243" value="" style="ellipse;whiteSpace=wrap;html=1;aspect=fixed;strokeColor=none;fillColor=#FF0000;container=0;" parent="gjNsdtH0i1_UxAf90j_M-405" vertex="1">
          <mxGeometry x="280" y="39.25" width="10" height="10" as="geometry" />
        </mxCell>
        <mxCell id="gjNsdtH0i1_UxAf90j_M-244" value="" style="ellipse;whiteSpace=wrap;html=1;aspect=fixed;strokeColor=none;fillColor=#FF0000;container=0;" parent="gjNsdtH0i1_UxAf90j_M-405" vertex="1">
          <mxGeometry x="280" y="49.25" width="10" height="10" as="geometry" />
        </mxCell>
        <mxCell id="gjNsdtH0i1_UxAf90j_M-245" value="" style="ellipse;whiteSpace=wrap;html=1;aspect=fixed;strokeColor=none;fillColor=#FF0000;container=0;" parent="gjNsdtH0i1_UxAf90j_M-405" vertex="1">
          <mxGeometry x="280" y="59.25" width="10" height="10" as="geometry" />
        </mxCell>
        <mxCell id="gjNsdtH0i1_UxAf90j_M-246" value="" style="ellipse;whiteSpace=wrap;html=1;aspect=fixed;strokeColor=none;fillColor=#FF0000;container=0;" parent="gjNsdtH0i1_UxAf90j_M-405" vertex="1">
          <mxGeometry x="280" y="68.5" width="10" height="10" as="geometry" />
        </mxCell>
        <mxCell id="gjNsdtH0i1_UxAf90j_M-247" value="" style="ellipse;whiteSpace=wrap;html=1;aspect=fixed;strokeColor=none;fillColor=#330000;container=0;" parent="gjNsdtH0i1_UxAf90j_M-405" vertex="1">
          <mxGeometry x="280" y="78.5" width="10" height="10" as="geometry" />
        </mxCell>
        <mxCell id="gjNsdtH0i1_UxAf90j_M-248" value="" style="ellipse;whiteSpace=wrap;html=1;aspect=fixed;strokeColor=none;fillColor=#330000;container=0;" parent="gjNsdtH0i1_UxAf90j_M-405" vertex="1">
          <mxGeometry x="280" y="30" width="10" height="10" as="geometry" />
        </mxCell>
        <mxCell id="gjNsdtH0i1_UxAf90j_M-250" value="" style="ellipse;whiteSpace=wrap;html=1;aspect=fixed;strokeColor=none;fillColor=#330000;container=0;" parent="gjNsdtH0i1_UxAf90j_M-405" vertex="1">
          <mxGeometry x="290" y="39.25" width="10" height="10" as="geometry" />
        </mxCell>
        <mxCell id="gjNsdtH0i1_UxAf90j_M-251" value="" style="ellipse;whiteSpace=wrap;html=1;aspect=fixed;strokeColor=none;fillColor=#FF0000;container=0;" parent="gjNsdtH0i1_UxAf90j_M-405" vertex="1">
          <mxGeometry x="290" y="49.25" width="10" height="10" as="geometry" />
        </mxCell>
        <mxCell id="gjNsdtH0i1_UxAf90j_M-252" value="" style="ellipse;whiteSpace=wrap;html=1;aspect=fixed;strokeColor=none;fillColor=#330000;container=0;" parent="gjNsdtH0i1_UxAf90j_M-405" vertex="1">
          <mxGeometry x="290" y="59.25" width="10" height="10" as="geometry" />
        </mxCell>
        <mxCell id="gjNsdtH0i1_UxAf90j_M-253" value="" style="ellipse;whiteSpace=wrap;html=1;aspect=fixed;strokeColor=none;fillColor=#330000;container=0;" parent="gjNsdtH0i1_UxAf90j_M-405" vertex="1">
          <mxGeometry x="290" y="68.5" width="10" height="10" as="geometry" />
        </mxCell>
        <mxCell id="gjNsdtH0i1_UxAf90j_M-254" value="" style="ellipse;whiteSpace=wrap;html=1;aspect=fixed;strokeColor=none;fillColor=#330000;container=0;" parent="gjNsdtH0i1_UxAf90j_M-405" vertex="1">
          <mxGeometry x="290" y="78.5" width="10" height="10" as="geometry" />
        </mxCell>
        <mxCell id="gjNsdtH0i1_UxAf90j_M-255" value="" style="ellipse;whiteSpace=wrap;html=1;aspect=fixed;strokeColor=none;fillColor=#330000;container=0;" parent="gjNsdtH0i1_UxAf90j_M-405" vertex="1">
          <mxGeometry x="290" y="30" width="10" height="10" as="geometry" />
        </mxCell>
        <mxCell id="gjNsdtH0i1_UxAf90j_M-257" value="" style="ellipse;whiteSpace=wrap;html=1;aspect=fixed;strokeColor=none;fillColor=#330000;container=0;" parent="gjNsdtH0i1_UxAf90j_M-405" vertex="1">
          <mxGeometry x="300" y="39.25" width="10" height="10" as="geometry" />
        </mxCell>
        <mxCell id="gjNsdtH0i1_UxAf90j_M-258" value="" style="ellipse;whiteSpace=wrap;html=1;aspect=fixed;strokeColor=none;fillColor=#330000;container=0;" parent="gjNsdtH0i1_UxAf90j_M-405" vertex="1">
          <mxGeometry x="300" y="49.25" width="10" height="10" as="geometry" />
        </mxCell>
        <mxCell id="gjNsdtH0i1_UxAf90j_M-259" value="" style="ellipse;whiteSpace=wrap;html=1;aspect=fixed;strokeColor=none;fillColor=#FF0000;container=0;" parent="gjNsdtH0i1_UxAf90j_M-405" vertex="1">
          <mxGeometry x="300" y="59.25" width="10" height="10" as="geometry" />
        </mxCell>
        <mxCell id="gjNsdtH0i1_UxAf90j_M-260" value="" style="ellipse;whiteSpace=wrap;html=1;aspect=fixed;strokeColor=none;fillColor=#330000;container=0;" parent="gjNsdtH0i1_UxAf90j_M-405" vertex="1">
          <mxGeometry x="300" y="68.5" width="10" height="10" as="geometry" />
        </mxCell>
        <mxCell id="gjNsdtH0i1_UxAf90j_M-261" value="" style="ellipse;whiteSpace=wrap;html=1;aspect=fixed;strokeColor=none;fillColor=#330000;container=0;" parent="gjNsdtH0i1_UxAf90j_M-405" vertex="1">
          <mxGeometry x="300" y="78.5" width="10" height="10" as="geometry" />
        </mxCell>
        <mxCell id="gjNsdtH0i1_UxAf90j_M-262" value="" style="ellipse;whiteSpace=wrap;html=1;aspect=fixed;strokeColor=none;fillColor=#330000;container=0;" parent="gjNsdtH0i1_UxAf90j_M-405" vertex="1">
          <mxGeometry x="300" y="30" width="10" height="10" as="geometry" />
        </mxCell>
        <mxCell id="gjNsdtH0i1_UxAf90j_M-264" value="" style="ellipse;whiteSpace=wrap;html=1;aspect=fixed;strokeColor=none;fillColor=#330000;container=0;" parent="gjNsdtH0i1_UxAf90j_M-405" vertex="1">
          <mxGeometry x="310" y="39.25" width="10" height="10" as="geometry" />
        </mxCell>
        <mxCell id="gjNsdtH0i1_UxAf90j_M-265" value="" style="ellipse;whiteSpace=wrap;html=1;aspect=fixed;strokeColor=none;fillColor=#FF0000;container=0;" parent="gjNsdtH0i1_UxAf90j_M-405" vertex="1">
          <mxGeometry x="310" y="49.25" width="10" height="10" as="geometry" />
        </mxCell>
        <mxCell id="gjNsdtH0i1_UxAf90j_M-266" value="" style="ellipse;whiteSpace=wrap;html=1;aspect=fixed;strokeColor=none;fillColor=#330000;container=0;" parent="gjNsdtH0i1_UxAf90j_M-405" vertex="1">
          <mxGeometry x="310" y="59.25" width="10" height="10" as="geometry" />
        </mxCell>
        <mxCell id="gjNsdtH0i1_UxAf90j_M-267" value="" style="ellipse;whiteSpace=wrap;html=1;aspect=fixed;strokeColor=none;fillColor=#330000;container=0;" parent="gjNsdtH0i1_UxAf90j_M-405" vertex="1">
          <mxGeometry x="310" y="68.5" width="10" height="10" as="geometry" />
        </mxCell>
        <mxCell id="gjNsdtH0i1_UxAf90j_M-268" value="" style="ellipse;whiteSpace=wrap;html=1;aspect=fixed;strokeColor=none;fillColor=#330000;container=0;" parent="gjNsdtH0i1_UxAf90j_M-405" vertex="1">
          <mxGeometry x="310" y="78.5" width="10" height="10" as="geometry" />
        </mxCell>
        <mxCell id="gjNsdtH0i1_UxAf90j_M-269" value="" style="ellipse;whiteSpace=wrap;html=1;aspect=fixed;strokeColor=none;fillColor=#330000;container=0;" parent="gjNsdtH0i1_UxAf90j_M-405" vertex="1">
          <mxGeometry x="310" y="30" width="10" height="10" as="geometry" />
        </mxCell>
        <mxCell id="gjNsdtH0i1_UxAf90j_M-271" value="" style="ellipse;whiteSpace=wrap;html=1;aspect=fixed;strokeColor=none;fillColor=#FF0000;container=0;" parent="gjNsdtH0i1_UxAf90j_M-405" vertex="1">
          <mxGeometry x="320" y="39.25" width="10" height="10" as="geometry" />
        </mxCell>
        <mxCell id="gjNsdtH0i1_UxAf90j_M-272" value="" style="ellipse;whiteSpace=wrap;html=1;aspect=fixed;strokeColor=none;fillColor=#FF0000;container=0;" parent="gjNsdtH0i1_UxAf90j_M-405" vertex="1">
          <mxGeometry x="320" y="49.25" width="10" height="10" as="geometry" />
        </mxCell>
        <mxCell id="gjNsdtH0i1_UxAf90j_M-273" value="" style="ellipse;whiteSpace=wrap;html=1;aspect=fixed;strokeColor=none;fillColor=#FF0000;container=0;" parent="gjNsdtH0i1_UxAf90j_M-405" vertex="1">
          <mxGeometry x="320" y="59.25" width="10" height="10" as="geometry" />
        </mxCell>
        <mxCell id="gjNsdtH0i1_UxAf90j_M-274" value="" style="ellipse;whiteSpace=wrap;html=1;aspect=fixed;strokeColor=none;fillColor=#FF0000;container=0;" parent="gjNsdtH0i1_UxAf90j_M-405" vertex="1">
          <mxGeometry x="320" y="68.5" width="10" height="10" as="geometry" />
        </mxCell>
        <mxCell id="gjNsdtH0i1_UxAf90j_M-275" value="" style="ellipse;whiteSpace=wrap;html=1;aspect=fixed;strokeColor=none;fillColor=#330000;container=0;" parent="gjNsdtH0i1_UxAf90j_M-405" vertex="1">
          <mxGeometry x="320" y="78.5" width="10" height="10" as="geometry" />
        </mxCell>
        <mxCell id="gjNsdtH0i1_UxAf90j_M-276" value="" style="ellipse;whiteSpace=wrap;html=1;aspect=fixed;strokeColor=none;fillColor=#330000;container=0;" parent="gjNsdtH0i1_UxAf90j_M-405" vertex="1">
          <mxGeometry x="320" y="30" width="10" height="10" as="geometry" />
        </mxCell>
        <mxCell id="gjNsdtH0i1_UxAf90j_M-277" value="" style="ellipse;whiteSpace=wrap;html=1;aspect=fixed;strokeColor=none;fillColor=#330000;container=0;" parent="gjNsdtH0i1_UxAf90j_M-405" vertex="1">
          <mxGeometry x="10" y="20" width="10" height="10" as="geometry" />
        </mxCell>
        <mxCell id="gjNsdtH0i1_UxAf90j_M-278" value="" style="ellipse;whiteSpace=wrap;html=1;aspect=fixed;strokeColor=none;fillColor=#FF0000;container=0;" parent="gjNsdtH0i1_UxAf90j_M-405" vertex="1">
          <mxGeometry x="20" y="20" width="10" height="10" as="geometry" />
        </mxCell>
        <mxCell id="gjNsdtH0i1_UxAf90j_M-279" value="" style="ellipse;whiteSpace=wrap;html=1;aspect=fixed;strokeColor=none;fillColor=#FF0000;container=0;" parent="gjNsdtH0i1_UxAf90j_M-405" vertex="1">
          <mxGeometry x="30" y="20" width="10" height="10" as="geometry" />
        </mxCell>
        <mxCell id="gjNsdtH0i1_UxAf90j_M-280" value="" style="ellipse;whiteSpace=wrap;html=1;aspect=fixed;strokeColor=none;fillColor=#330000;container=0;" parent="gjNsdtH0i1_UxAf90j_M-405" vertex="1">
          <mxGeometry x="40" y="20" width="10" height="10" as="geometry" />
        </mxCell>
        <mxCell id="gjNsdtH0i1_UxAf90j_M-281" value="" style="ellipse;whiteSpace=wrap;html=1;aspect=fixed;strokeColor=none;fillColor=#330000;container=0;" parent="gjNsdtH0i1_UxAf90j_M-405" vertex="1">
          <mxGeometry x="50" y="20" width="10" height="10" as="geometry" />
        </mxCell>
        <mxCell id="gjNsdtH0i1_UxAf90j_M-282" value="" style="ellipse;whiteSpace=wrap;html=1;aspect=fixed;strokeColor=none;fillColor=#330000;container=0;" parent="gjNsdtH0i1_UxAf90j_M-405" vertex="1">
          <mxGeometry x="60" y="20" width="10" height="10" as="geometry" />
        </mxCell>
        <mxCell id="gjNsdtH0i1_UxAf90j_M-283" value="" style="ellipse;whiteSpace=wrap;html=1;aspect=fixed;strokeColor=none;fillColor=#330000;container=0;" parent="gjNsdtH0i1_UxAf90j_M-405" vertex="1">
          <mxGeometry x="70" y="20" width="10" height="10" as="geometry" />
        </mxCell>
        <mxCell id="gjNsdtH0i1_UxAf90j_M-284" value="" style="ellipse;whiteSpace=wrap;html=1;aspect=fixed;strokeColor=none;fillColor=#330000;container=0;" parent="gjNsdtH0i1_UxAf90j_M-405" vertex="1">
          <mxGeometry x="80" y="20" width="10" height="10" as="geometry" />
        </mxCell>
        <mxCell id="gjNsdtH0i1_UxAf90j_M-285" value="" style="ellipse;whiteSpace=wrap;html=1;aspect=fixed;strokeColor=none;fillColor=#330000;container=0;" parent="gjNsdtH0i1_UxAf90j_M-405" vertex="1">
          <mxGeometry x="90" y="20" width="10" height="10" as="geometry" />
        </mxCell>
        <mxCell id="gjNsdtH0i1_UxAf90j_M-286" value="" style="ellipse;whiteSpace=wrap;html=1;aspect=fixed;strokeColor=none;fillColor=#330000;container=0;" parent="gjNsdtH0i1_UxAf90j_M-405" vertex="1">
          <mxGeometry x="100" y="20" width="10" height="10" as="geometry" />
        </mxCell>
        <mxCell id="gjNsdtH0i1_UxAf90j_M-287" value="" style="ellipse;whiteSpace=wrap;html=1;aspect=fixed;strokeColor=none;fillColor=#330000;container=0;" parent="gjNsdtH0i1_UxAf90j_M-405" vertex="1">
          <mxGeometry x="110" y="20" width="10" height="10" as="geometry" />
        </mxCell>
        <mxCell id="gjNsdtH0i1_UxAf90j_M-288" value="" style="ellipse;whiteSpace=wrap;html=1;aspect=fixed;strokeColor=none;fillColor=#330000;container=0;" parent="gjNsdtH0i1_UxAf90j_M-405" vertex="1">
          <mxGeometry x="120" y="20" width="10" height="10" as="geometry" />
        </mxCell>
        <mxCell id="gjNsdtH0i1_UxAf90j_M-289" value="" style="ellipse;whiteSpace=wrap;html=1;aspect=fixed;strokeColor=none;fillColor=#330000;container=0;" parent="gjNsdtH0i1_UxAf90j_M-405" vertex="1">
          <mxGeometry x="130" y="20" width="10" height="10" as="geometry" />
        </mxCell>
        <mxCell id="gjNsdtH0i1_UxAf90j_M-290" value="" style="ellipse;whiteSpace=wrap;html=1;aspect=fixed;strokeColor=none;fillColor=#330000;container=0;" parent="gjNsdtH0i1_UxAf90j_M-405" vertex="1">
          <mxGeometry x="140" y="20" width="10" height="10" as="geometry" />
        </mxCell>
        <mxCell id="gjNsdtH0i1_UxAf90j_M-291" value="" style="ellipse;whiteSpace=wrap;html=1;aspect=fixed;strokeColor=none;fillColor=#330000;container=0;" parent="gjNsdtH0i1_UxAf90j_M-405" vertex="1">
          <mxGeometry x="150" y="20" width="10" height="10" as="geometry" />
        </mxCell>
        <mxCell id="gjNsdtH0i1_UxAf90j_M-292" value="" style="ellipse;whiteSpace=wrap;html=1;aspect=fixed;strokeColor=none;fillColor=#330000;container=0;" parent="gjNsdtH0i1_UxAf90j_M-405" vertex="1">
          <mxGeometry x="160" y="20" width="10" height="10" as="geometry" />
        </mxCell>
        <mxCell id="gjNsdtH0i1_UxAf90j_M-293" value="" style="ellipse;whiteSpace=wrap;html=1;aspect=fixed;strokeColor=none;fillColor=#330000;container=0;" parent="gjNsdtH0i1_UxAf90j_M-405" vertex="1">
          <mxGeometry x="170" y="20" width="10" height="10" as="geometry" />
        </mxCell>
        <mxCell id="gjNsdtH0i1_UxAf90j_M-294" value="" style="ellipse;whiteSpace=wrap;html=1;aspect=fixed;strokeColor=none;fillColor=#330000;container=0;" parent="gjNsdtH0i1_UxAf90j_M-405" vertex="1">
          <mxGeometry x="180" y="20" width="10" height="10" as="geometry" />
        </mxCell>
        <mxCell id="gjNsdtH0i1_UxAf90j_M-295" value="" style="ellipse;whiteSpace=wrap;html=1;aspect=fixed;strokeColor=none;fillColor=#330000;container=0;" parent="gjNsdtH0i1_UxAf90j_M-405" vertex="1">
          <mxGeometry x="190" y="20" width="10" height="10" as="geometry" />
        </mxCell>
        <mxCell id="gjNsdtH0i1_UxAf90j_M-296" value="" style="ellipse;whiteSpace=wrap;html=1;aspect=fixed;strokeColor=none;fillColor=#330000;container=0;" parent="gjNsdtH0i1_UxAf90j_M-405" vertex="1">
          <mxGeometry x="200" y="20" width="10" height="10" as="geometry" />
        </mxCell>
        <mxCell id="gjNsdtH0i1_UxAf90j_M-297" value="" style="ellipse;whiteSpace=wrap;html=1;aspect=fixed;strokeColor=none;fillColor=#330000;container=0;" parent="gjNsdtH0i1_UxAf90j_M-405" vertex="1">
          <mxGeometry x="210" y="20" width="10" height="10" as="geometry" />
        </mxCell>
        <mxCell id="gjNsdtH0i1_UxAf90j_M-298" value="" style="ellipse;whiteSpace=wrap;html=1;aspect=fixed;strokeColor=none;fillColor=#330000;container=0;" parent="gjNsdtH0i1_UxAf90j_M-405" vertex="1">
          <mxGeometry x="220" y="20" width="10" height="10" as="geometry" />
        </mxCell>
        <mxCell id="gjNsdtH0i1_UxAf90j_M-299" value="" style="ellipse;whiteSpace=wrap;html=1;aspect=fixed;strokeColor=none;fillColor=#330000;container=0;" parent="gjNsdtH0i1_UxAf90j_M-405" vertex="1">
          <mxGeometry x="230" y="20" width="10" height="10" as="geometry" />
        </mxCell>
        <mxCell id="gjNsdtH0i1_UxAf90j_M-300" value="" style="ellipse;whiteSpace=wrap;html=1;aspect=fixed;strokeColor=none;fillColor=#330000;container=0;" parent="gjNsdtH0i1_UxAf90j_M-405" vertex="1">
          <mxGeometry x="240" y="20" width="10" height="10" as="geometry" />
        </mxCell>
        <mxCell id="gjNsdtH0i1_UxAf90j_M-301" value="" style="ellipse;whiteSpace=wrap;html=1;aspect=fixed;strokeColor=none;fillColor=#330000;container=0;" parent="gjNsdtH0i1_UxAf90j_M-405" vertex="1">
          <mxGeometry x="250" y="20" width="10" height="10" as="geometry" />
        </mxCell>
        <mxCell id="gjNsdtH0i1_UxAf90j_M-302" value="" style="ellipse;whiteSpace=wrap;html=1;aspect=fixed;strokeColor=none;fillColor=#330000;container=0;" parent="gjNsdtH0i1_UxAf90j_M-405" vertex="1">
          <mxGeometry x="260" y="20" width="10" height="10" as="geometry" />
        </mxCell>
        <mxCell id="gjNsdtH0i1_UxAf90j_M-303" value="" style="ellipse;whiteSpace=wrap;html=1;aspect=fixed;strokeColor=none;fillColor=#330000;container=0;" parent="gjNsdtH0i1_UxAf90j_M-405" vertex="1">
          <mxGeometry x="270" y="20" width="10" height="10" as="geometry" />
        </mxCell>
        <mxCell id="gjNsdtH0i1_UxAf90j_M-304" value="" style="ellipse;whiteSpace=wrap;html=1;aspect=fixed;strokeColor=none;fillColor=#330000;container=0;" parent="gjNsdtH0i1_UxAf90j_M-405" vertex="1">
          <mxGeometry x="280" y="20" width="10" height="10" as="geometry" />
        </mxCell>
        <mxCell id="gjNsdtH0i1_UxAf90j_M-305" value="" style="ellipse;whiteSpace=wrap;html=1;aspect=fixed;strokeColor=none;fillColor=#330000;container=0;" parent="gjNsdtH0i1_UxAf90j_M-405" vertex="1">
          <mxGeometry x="290" y="20" width="10" height="10" as="geometry" />
        </mxCell>
        <mxCell id="gjNsdtH0i1_UxAf90j_M-306" value="" style="ellipse;whiteSpace=wrap;html=1;aspect=fixed;strokeColor=none;fillColor=#330000;container=0;" parent="gjNsdtH0i1_UxAf90j_M-405" vertex="1">
          <mxGeometry x="300" y="20" width="10" height="10" as="geometry" />
        </mxCell>
        <mxCell id="gjNsdtH0i1_UxAf90j_M-307" value="" style="ellipse;whiteSpace=wrap;html=1;aspect=fixed;strokeColor=none;fillColor=#330000;container=0;" parent="gjNsdtH0i1_UxAf90j_M-405" vertex="1">
          <mxGeometry x="310" y="20" width="10" height="10" as="geometry" />
        </mxCell>
        <mxCell id="gjNsdtH0i1_UxAf90j_M-308" value="" style="ellipse;whiteSpace=wrap;html=1;aspect=fixed;strokeColor=none;fillColor=#330000;container=0;" parent="gjNsdtH0i1_UxAf90j_M-405" vertex="1">
          <mxGeometry x="320" y="20" width="10" height="10" as="geometry" />
        </mxCell>
        <mxCell id="gjNsdtH0i1_UxAf90j_M-309" value="" style="ellipse;whiteSpace=wrap;html=1;aspect=fixed;strokeColor=none;fillColor=#330000;container=0;" parent="gjNsdtH0i1_UxAf90j_M-405" vertex="1">
          <mxGeometry x="10" y="10" width="10" height="10" as="geometry" />
        </mxCell>
        <mxCell id="gjNsdtH0i1_UxAf90j_M-310" value="" style="ellipse;whiteSpace=wrap;html=1;aspect=fixed;strokeColor=none;fillColor=#330000;container=0;" parent="gjNsdtH0i1_UxAf90j_M-405" vertex="1">
          <mxGeometry x="20" y="10" width="10" height="10" as="geometry" />
        </mxCell>
        <mxCell id="gjNsdtH0i1_UxAf90j_M-311" value="" style="ellipse;whiteSpace=wrap;html=1;aspect=fixed;strokeColor=none;fillColor=#330000;container=0;" parent="gjNsdtH0i1_UxAf90j_M-405" vertex="1">
          <mxGeometry x="30" y="10" width="10" height="10" as="geometry" />
        </mxCell>
        <mxCell id="gjNsdtH0i1_UxAf90j_M-312" value="" style="ellipse;whiteSpace=wrap;html=1;aspect=fixed;strokeColor=none;fillColor=#330000;container=0;" parent="gjNsdtH0i1_UxAf90j_M-405" vertex="1">
          <mxGeometry x="40" y="10" width="10" height="10" as="geometry" />
        </mxCell>
        <mxCell id="gjNsdtH0i1_UxAf90j_M-313" value="" style="ellipse;whiteSpace=wrap;html=1;aspect=fixed;strokeColor=none;fillColor=#330000;container=0;" parent="gjNsdtH0i1_UxAf90j_M-405" vertex="1">
          <mxGeometry x="50" y="10" width="10" height="10" as="geometry" />
        </mxCell>
        <mxCell id="gjNsdtH0i1_UxAf90j_M-314" value="" style="ellipse;whiteSpace=wrap;html=1;aspect=fixed;strokeColor=none;fillColor=#330000;container=0;" parent="gjNsdtH0i1_UxAf90j_M-405" vertex="1">
          <mxGeometry x="60" y="10" width="10" height="10" as="geometry" />
        </mxCell>
        <mxCell id="gjNsdtH0i1_UxAf90j_M-315" value="" style="ellipse;whiteSpace=wrap;html=1;aspect=fixed;strokeColor=none;fillColor=#330000;container=0;" parent="gjNsdtH0i1_UxAf90j_M-405" vertex="1">
          <mxGeometry x="70" y="10" width="10" height="10" as="geometry" />
        </mxCell>
        <mxCell id="gjNsdtH0i1_UxAf90j_M-316" value="" style="ellipse;whiteSpace=wrap;html=1;aspect=fixed;strokeColor=none;fillColor=#330000;container=0;" parent="gjNsdtH0i1_UxAf90j_M-405" vertex="1">
          <mxGeometry x="80" y="10" width="10" height="10" as="geometry" />
        </mxCell>
        <mxCell id="gjNsdtH0i1_UxAf90j_M-317" value="" style="ellipse;whiteSpace=wrap;html=1;aspect=fixed;strokeColor=none;fillColor=#330000;container=0;" parent="gjNsdtH0i1_UxAf90j_M-405" vertex="1">
          <mxGeometry x="90" y="10" width="10" height="10" as="geometry" />
        </mxCell>
        <mxCell id="gjNsdtH0i1_UxAf90j_M-318" value="" style="ellipse;whiteSpace=wrap;html=1;aspect=fixed;strokeColor=none;fillColor=#330000;container=0;" parent="gjNsdtH0i1_UxAf90j_M-405" vertex="1">
          <mxGeometry x="100" y="10" width="10" height="10" as="geometry" />
        </mxCell>
        <mxCell id="gjNsdtH0i1_UxAf90j_M-319" value="" style="ellipse;whiteSpace=wrap;html=1;aspect=fixed;strokeColor=none;fillColor=#330000;container=0;" parent="gjNsdtH0i1_UxAf90j_M-405" vertex="1">
          <mxGeometry x="110" y="10" width="10" height="10" as="geometry" />
        </mxCell>
        <mxCell id="gjNsdtH0i1_UxAf90j_M-320" value="" style="ellipse;whiteSpace=wrap;html=1;aspect=fixed;strokeColor=none;fillColor=#330000;container=0;" parent="gjNsdtH0i1_UxAf90j_M-405" vertex="1">
          <mxGeometry x="120" y="10" width="10" height="10" as="geometry" />
        </mxCell>
        <mxCell id="gjNsdtH0i1_UxAf90j_M-321" value="" style="ellipse;whiteSpace=wrap;html=1;aspect=fixed;strokeColor=none;fillColor=#330000;container=0;" parent="gjNsdtH0i1_UxAf90j_M-405" vertex="1">
          <mxGeometry x="130" y="10" width="10" height="10" as="geometry" />
        </mxCell>
        <mxCell id="gjNsdtH0i1_UxAf90j_M-322" value="" style="ellipse;whiteSpace=wrap;html=1;aspect=fixed;strokeColor=none;fillColor=#330000;container=0;" parent="gjNsdtH0i1_UxAf90j_M-405" vertex="1">
          <mxGeometry x="140" y="10" width="10" height="10" as="geometry" />
        </mxCell>
        <mxCell id="gjNsdtH0i1_UxAf90j_M-323" value="" style="ellipse;whiteSpace=wrap;html=1;aspect=fixed;strokeColor=none;fillColor=#330000;container=0;" parent="gjNsdtH0i1_UxAf90j_M-405" vertex="1">
          <mxGeometry x="150" y="10" width="10" height="10" as="geometry" />
        </mxCell>
        <mxCell id="gjNsdtH0i1_UxAf90j_M-324" value="" style="ellipse;whiteSpace=wrap;html=1;aspect=fixed;strokeColor=none;fillColor=#330000;container=0;" parent="gjNsdtH0i1_UxAf90j_M-405" vertex="1">
          <mxGeometry x="160" y="10" width="10" height="10" as="geometry" />
        </mxCell>
        <mxCell id="gjNsdtH0i1_UxAf90j_M-325" value="" style="ellipse;whiteSpace=wrap;html=1;aspect=fixed;strokeColor=none;fillColor=#330000;container=0;" parent="gjNsdtH0i1_UxAf90j_M-405" vertex="1">
          <mxGeometry x="170" y="10" width="10" height="10" as="geometry" />
        </mxCell>
        <mxCell id="gjNsdtH0i1_UxAf90j_M-326" value="" style="ellipse;whiteSpace=wrap;html=1;aspect=fixed;strokeColor=none;fillColor=#330000;container=0;" parent="gjNsdtH0i1_UxAf90j_M-405" vertex="1">
          <mxGeometry x="180" y="10" width="10" height="10" as="geometry" />
        </mxCell>
        <mxCell id="gjNsdtH0i1_UxAf90j_M-327" value="" style="ellipse;whiteSpace=wrap;html=1;aspect=fixed;strokeColor=none;fillColor=#330000;container=0;" parent="gjNsdtH0i1_UxAf90j_M-405" vertex="1">
          <mxGeometry x="190" y="10" width="10" height="10" as="geometry" />
        </mxCell>
        <mxCell id="gjNsdtH0i1_UxAf90j_M-328" value="" style="ellipse;whiteSpace=wrap;html=1;aspect=fixed;strokeColor=none;fillColor=#330000;container=0;" parent="gjNsdtH0i1_UxAf90j_M-405" vertex="1">
          <mxGeometry x="200" y="10" width="10" height="10" as="geometry" />
        </mxCell>
        <mxCell id="gjNsdtH0i1_UxAf90j_M-329" value="" style="ellipse;whiteSpace=wrap;html=1;aspect=fixed;strokeColor=none;fillColor=#330000;container=0;" parent="gjNsdtH0i1_UxAf90j_M-405" vertex="1">
          <mxGeometry x="210" y="10" width="10" height="10" as="geometry" />
        </mxCell>
        <mxCell id="gjNsdtH0i1_UxAf90j_M-330" value="" style="ellipse;whiteSpace=wrap;html=1;aspect=fixed;strokeColor=none;fillColor=#330000;container=0;" parent="gjNsdtH0i1_UxAf90j_M-405" vertex="1">
          <mxGeometry x="220" y="10" width="10" height="10" as="geometry" />
        </mxCell>
        <mxCell id="gjNsdtH0i1_UxAf90j_M-331" value="" style="ellipse;whiteSpace=wrap;html=1;aspect=fixed;strokeColor=none;fillColor=#330000;container=0;" parent="gjNsdtH0i1_UxAf90j_M-405" vertex="1">
          <mxGeometry x="230" y="10" width="10" height="10" as="geometry" />
        </mxCell>
        <mxCell id="gjNsdtH0i1_UxAf90j_M-332" value="" style="ellipse;whiteSpace=wrap;html=1;aspect=fixed;strokeColor=none;fillColor=#330000;container=0;" parent="gjNsdtH0i1_UxAf90j_M-405" vertex="1">
          <mxGeometry x="240" y="10" width="10" height="10" as="geometry" />
        </mxCell>
        <mxCell id="gjNsdtH0i1_UxAf90j_M-333" value="" style="ellipse;whiteSpace=wrap;html=1;aspect=fixed;strokeColor=none;fillColor=#330000;container=0;" parent="gjNsdtH0i1_UxAf90j_M-405" vertex="1">
          <mxGeometry x="250" y="10" width="10" height="10" as="geometry" />
        </mxCell>
        <mxCell id="gjNsdtH0i1_UxAf90j_M-334" value="" style="ellipse;whiteSpace=wrap;html=1;aspect=fixed;strokeColor=none;fillColor=#330000;container=0;" parent="gjNsdtH0i1_UxAf90j_M-405" vertex="1">
          <mxGeometry x="260" y="10" width="10" height="10" as="geometry" />
        </mxCell>
        <mxCell id="gjNsdtH0i1_UxAf90j_M-335" value="" style="ellipse;whiteSpace=wrap;html=1;aspect=fixed;strokeColor=none;fillColor=#330000;container=0;" parent="gjNsdtH0i1_UxAf90j_M-405" vertex="1">
          <mxGeometry x="270" y="10" width="10" height="10" as="geometry" />
        </mxCell>
        <mxCell id="gjNsdtH0i1_UxAf90j_M-336" value="" style="ellipse;whiteSpace=wrap;html=1;aspect=fixed;strokeColor=none;fillColor=#330000;container=0;" parent="gjNsdtH0i1_UxAf90j_M-405" vertex="1">
          <mxGeometry x="280" y="10" width="10" height="10" as="geometry" />
        </mxCell>
        <mxCell id="gjNsdtH0i1_UxAf90j_M-338" value="" style="ellipse;whiteSpace=wrap;html=1;aspect=fixed;strokeColor=none;fillColor=#330000;container=0;" parent="gjNsdtH0i1_UxAf90j_M-405" vertex="1">
          <mxGeometry x="300" y="10" width="10" height="10" as="geometry" />
        </mxCell>
        <mxCell id="gjNsdtH0i1_UxAf90j_M-339" value="" style="ellipse;whiteSpace=wrap;html=1;aspect=fixed;strokeColor=none;fillColor=#330000;container=0;" parent="gjNsdtH0i1_UxAf90j_M-405" vertex="1">
          <mxGeometry x="310" y="10" width="10" height="10" as="geometry" />
        </mxCell>
        <mxCell id="gjNsdtH0i1_UxAf90j_M-340" value="" style="ellipse;whiteSpace=wrap;html=1;aspect=fixed;strokeColor=none;fillColor=#330000;container=0;" parent="gjNsdtH0i1_UxAf90j_M-405" vertex="1">
          <mxGeometry x="320" y="10" width="10" height="10" as="geometry" />
        </mxCell>
        <mxCell id="gjNsdtH0i1_UxAf90j_M-341" value="" style="ellipse;whiteSpace=wrap;html=1;aspect=fixed;strokeColor=none;fillColor=#330000;container=0;" parent="gjNsdtH0i1_UxAf90j_M-405" vertex="1">
          <mxGeometry x="330" y="39.25" width="10" height="10" as="geometry" />
        </mxCell>
        <mxCell id="gjNsdtH0i1_UxAf90j_M-342" value="" style="ellipse;whiteSpace=wrap;html=1;aspect=fixed;strokeColor=none;fillColor=#330000;container=0;" parent="gjNsdtH0i1_UxAf90j_M-405" vertex="1">
          <mxGeometry x="330" y="49.25" width="10" height="10" as="geometry" />
        </mxCell>
        <mxCell id="gjNsdtH0i1_UxAf90j_M-343" value="" style="ellipse;whiteSpace=wrap;html=1;aspect=fixed;strokeColor=none;fillColor=#330000;container=0;" parent="gjNsdtH0i1_UxAf90j_M-405" vertex="1">
          <mxGeometry x="330" y="59.25" width="10" height="10" as="geometry" />
        </mxCell>
        <mxCell id="gjNsdtH0i1_UxAf90j_M-344" value="" style="ellipse;whiteSpace=wrap;html=1;aspect=fixed;strokeColor=none;fillColor=#330000;container=0;" parent="gjNsdtH0i1_UxAf90j_M-405" vertex="1">
          <mxGeometry x="330" y="68.5" width="10" height="10" as="geometry" />
        </mxCell>
        <mxCell id="gjNsdtH0i1_UxAf90j_M-345" value="" style="ellipse;whiteSpace=wrap;html=1;aspect=fixed;strokeColor=none;fillColor=#330000;container=0;" parent="gjNsdtH0i1_UxAf90j_M-405" vertex="1">
          <mxGeometry x="330" y="78.5" width="10" height="10" as="geometry" />
        </mxCell>
        <mxCell id="gjNsdtH0i1_UxAf90j_M-346" value="" style="ellipse;whiteSpace=wrap;html=1;aspect=fixed;strokeColor=none;fillColor=#330000;container=0;" parent="gjNsdtH0i1_UxAf90j_M-405" vertex="1">
          <mxGeometry x="330" y="30" width="10" height="10" as="geometry" />
        </mxCell>
        <mxCell id="gjNsdtH0i1_UxAf90j_M-347" value="" style="ellipse;whiteSpace=wrap;html=1;aspect=fixed;strokeColor=none;fillColor=#FF0000;container=0;" parent="gjNsdtH0i1_UxAf90j_M-405" vertex="1">
          <mxGeometry x="340" y="39.25" width="10" height="10" as="geometry" />
        </mxCell>
        <mxCell id="gjNsdtH0i1_UxAf90j_M-348" value="" style="ellipse;whiteSpace=wrap;html=1;aspect=fixed;strokeColor=none;fillColor=#FF0000;container=0;" parent="gjNsdtH0i1_UxAf90j_M-405" vertex="1">
          <mxGeometry x="340" y="49.25" width="10" height="10" as="geometry" />
        </mxCell>
        <mxCell id="gjNsdtH0i1_UxAf90j_M-349" value="" style="ellipse;whiteSpace=wrap;html=1;aspect=fixed;strokeColor=none;fillColor=#FF0000;container=0;" parent="gjNsdtH0i1_UxAf90j_M-405" vertex="1">
          <mxGeometry x="340" y="59.25" width="10" height="10" as="geometry" />
        </mxCell>
        <mxCell id="gjNsdtH0i1_UxAf90j_M-350" value="" style="ellipse;whiteSpace=wrap;html=1;aspect=fixed;strokeColor=none;fillColor=#330000;container=0;" parent="gjNsdtH0i1_UxAf90j_M-405" vertex="1">
          <mxGeometry x="340" y="68.5" width="10" height="10" as="geometry" />
        </mxCell>
        <mxCell id="gjNsdtH0i1_UxAf90j_M-351" value="" style="ellipse;whiteSpace=wrap;html=1;aspect=fixed;strokeColor=none;fillColor=#330000;container=0;" parent="gjNsdtH0i1_UxAf90j_M-405" vertex="1">
          <mxGeometry x="340" y="78.5" width="10" height="10" as="geometry" />
        </mxCell>
        <mxCell id="gjNsdtH0i1_UxAf90j_M-352" value="" style="ellipse;whiteSpace=wrap;html=1;aspect=fixed;strokeColor=none;fillColor=#330000;container=0;" parent="gjNsdtH0i1_UxAf90j_M-405" vertex="1">
          <mxGeometry x="340" y="30" width="10" height="10" as="geometry" />
        </mxCell>
        <mxCell id="gjNsdtH0i1_UxAf90j_M-353" value="" style="ellipse;whiteSpace=wrap;html=1;aspect=fixed;strokeColor=none;fillColor=#FF0000;container=0;" parent="gjNsdtH0i1_UxAf90j_M-405" vertex="1">
          <mxGeometry x="350" y="39.25" width="10" height="10" as="geometry" />
        </mxCell>
        <mxCell id="gjNsdtH0i1_UxAf90j_M-354" value="" style="ellipse;whiteSpace=wrap;html=1;aspect=fixed;strokeColor=none;fillColor=#330000;container=0;" parent="gjNsdtH0i1_UxAf90j_M-405" vertex="1">
          <mxGeometry x="350" y="49.25" width="10" height="10" as="geometry" />
        </mxCell>
        <mxCell id="gjNsdtH0i1_UxAf90j_M-355" value="" style="ellipse;whiteSpace=wrap;html=1;aspect=fixed;strokeColor=none;fillColor=#FF0000;container=0;" parent="gjNsdtH0i1_UxAf90j_M-405" vertex="1">
          <mxGeometry x="350" y="59.25" width="10" height="10" as="geometry" />
        </mxCell>
        <mxCell id="gjNsdtH0i1_UxAf90j_M-356" value="" style="ellipse;whiteSpace=wrap;html=1;aspect=fixed;strokeColor=none;fillColor=#FF0000;container=0;" parent="gjNsdtH0i1_UxAf90j_M-405" vertex="1">
          <mxGeometry x="350" y="68.5" width="10" height="10" as="geometry" />
        </mxCell>
        <mxCell id="gjNsdtH0i1_UxAf90j_M-357" value="" style="ellipse;whiteSpace=wrap;html=1;aspect=fixed;strokeColor=none;fillColor=#330000;container=0;" parent="gjNsdtH0i1_UxAf90j_M-405" vertex="1">
          <mxGeometry x="350" y="78.5" width="10" height="10" as="geometry" />
        </mxCell>
        <mxCell id="gjNsdtH0i1_UxAf90j_M-358" value="" style="ellipse;whiteSpace=wrap;html=1;aspect=fixed;strokeColor=none;fillColor=#330000;container=0;" parent="gjNsdtH0i1_UxAf90j_M-405" vertex="1">
          <mxGeometry x="350" y="30" width="10" height="10" as="geometry" />
        </mxCell>
        <mxCell id="gjNsdtH0i1_UxAf90j_M-359" value="" style="ellipse;whiteSpace=wrap;html=1;aspect=fixed;strokeColor=none;fillColor=#330000;container=0;" parent="gjNsdtH0i1_UxAf90j_M-405" vertex="1">
          <mxGeometry x="360" y="39.25" width="10" height="10" as="geometry" />
        </mxCell>
        <mxCell id="gjNsdtH0i1_UxAf90j_M-360" value="" style="ellipse;whiteSpace=wrap;html=1;aspect=fixed;strokeColor=none;fillColor=#FF0000;container=0;" parent="gjNsdtH0i1_UxAf90j_M-405" vertex="1">
          <mxGeometry x="360" y="49.25" width="10" height="10" as="geometry" />
        </mxCell>
        <mxCell id="gjNsdtH0i1_UxAf90j_M-361" value="" style="ellipse;whiteSpace=wrap;html=1;aspect=fixed;strokeColor=none;fillColor=#330000;container=0;" parent="gjNsdtH0i1_UxAf90j_M-405" vertex="1">
          <mxGeometry x="360" y="59.25" width="10" height="10" as="geometry" />
        </mxCell>
        <mxCell id="gjNsdtH0i1_UxAf90j_M-362" value="" style="ellipse;whiteSpace=wrap;html=1;aspect=fixed;strokeColor=none;fillColor=#FF0000;container=0;" parent="gjNsdtH0i1_UxAf90j_M-405" vertex="1">
          <mxGeometry x="360" y="68.5" width="10" height="10" as="geometry" />
        </mxCell>
        <mxCell id="gjNsdtH0i1_UxAf90j_M-363" value="" style="ellipse;whiteSpace=wrap;html=1;aspect=fixed;strokeColor=none;fillColor=#330000;container=0;" parent="gjNsdtH0i1_UxAf90j_M-405" vertex="1">
          <mxGeometry x="360" y="78.5" width="10" height="10" as="geometry" />
        </mxCell>
        <mxCell id="gjNsdtH0i1_UxAf90j_M-364" value="" style="ellipse;whiteSpace=wrap;html=1;aspect=fixed;strokeColor=none;fillColor=#330000;container=0;" parent="gjNsdtH0i1_UxAf90j_M-405" vertex="1">
          <mxGeometry x="360" y="30" width="10" height="10" as="geometry" />
        </mxCell>
        <mxCell id="gjNsdtH0i1_UxAf90j_M-365" value="" style="ellipse;whiteSpace=wrap;html=1;aspect=fixed;strokeColor=none;fillColor=#330000;container=0;" parent="gjNsdtH0i1_UxAf90j_M-405" vertex="1">
          <mxGeometry x="370" y="39.25" width="10" height="10" as="geometry" />
        </mxCell>
        <mxCell id="gjNsdtH0i1_UxAf90j_M-366" value="" style="ellipse;whiteSpace=wrap;html=1;aspect=fixed;strokeColor=none;fillColor=#330000;container=0;" parent="gjNsdtH0i1_UxAf90j_M-405" vertex="1">
          <mxGeometry x="370" y="49.25" width="10" height="10" as="geometry" />
        </mxCell>
        <mxCell id="gjNsdtH0i1_UxAf90j_M-367" value="" style="ellipse;whiteSpace=wrap;html=1;aspect=fixed;strokeColor=none;fillColor=#330000;container=0;" parent="gjNsdtH0i1_UxAf90j_M-405" vertex="1">
          <mxGeometry x="370" y="59.25" width="10" height="10" as="geometry" />
        </mxCell>
        <mxCell id="gjNsdtH0i1_UxAf90j_M-368" value="" style="ellipse;whiteSpace=wrap;html=1;aspect=fixed;strokeColor=none;fillColor=#330000;container=0;" parent="gjNsdtH0i1_UxAf90j_M-405" vertex="1">
          <mxGeometry x="370" y="68.5" width="10" height="10" as="geometry" />
        </mxCell>
        <mxCell id="gjNsdtH0i1_UxAf90j_M-369" value="" style="ellipse;whiteSpace=wrap;html=1;aspect=fixed;strokeColor=none;fillColor=#330000;container=0;" parent="gjNsdtH0i1_UxAf90j_M-405" vertex="1">
          <mxGeometry x="370" y="78.5" width="10" height="10" as="geometry" />
        </mxCell>
        <mxCell id="gjNsdtH0i1_UxAf90j_M-370" value="" style="ellipse;whiteSpace=wrap;html=1;aspect=fixed;strokeColor=none;fillColor=#330000;container=0;" parent="gjNsdtH0i1_UxAf90j_M-405" vertex="1">
          <mxGeometry x="370" y="30" width="10" height="10" as="geometry" />
        </mxCell>
        <mxCell id="gjNsdtH0i1_UxAf90j_M-371" value="" style="ellipse;whiteSpace=wrap;html=1;aspect=fixed;strokeColor=none;fillColor=#FF0000;container=0;" parent="gjNsdtH0i1_UxAf90j_M-405" vertex="1">
          <mxGeometry x="380" y="39.25" width="10" height="10" as="geometry" />
        </mxCell>
        <mxCell id="gjNsdtH0i1_UxAf90j_M-372" value="" style="ellipse;whiteSpace=wrap;html=1;aspect=fixed;strokeColor=none;fillColor=#FF0000;container=0;" parent="gjNsdtH0i1_UxAf90j_M-405" vertex="1">
          <mxGeometry x="380" y="49.25" width="10" height="10" as="geometry" />
        </mxCell>
        <mxCell id="gjNsdtH0i1_UxAf90j_M-373" value="" style="ellipse;whiteSpace=wrap;html=1;aspect=fixed;strokeColor=none;fillColor=#FF0000;container=0;" parent="gjNsdtH0i1_UxAf90j_M-405" vertex="1">
          <mxGeometry x="380" y="59.25" width="10" height="10" as="geometry" />
        </mxCell>
        <mxCell id="gjNsdtH0i1_UxAf90j_M-374" value="" style="ellipse;whiteSpace=wrap;html=1;aspect=fixed;strokeColor=none;fillColor=#FF0000;container=0;" parent="gjNsdtH0i1_UxAf90j_M-405" vertex="1">
          <mxGeometry x="380" y="68.5" width="10" height="10" as="geometry" />
        </mxCell>
        <mxCell id="gjNsdtH0i1_UxAf90j_M-375" value="" style="ellipse;whiteSpace=wrap;html=1;aspect=fixed;strokeColor=none;fillColor=#330000;container=0;" parent="gjNsdtH0i1_UxAf90j_M-405" vertex="1">
          <mxGeometry x="380" y="78.5" width="10" height="10" as="geometry" />
        </mxCell>
        <mxCell id="gjNsdtH0i1_UxAf90j_M-376" value="" style="ellipse;whiteSpace=wrap;html=1;aspect=fixed;strokeColor=none;fillColor=#330000;container=0;" parent="gjNsdtH0i1_UxAf90j_M-405" vertex="1">
          <mxGeometry x="380" y="30" width="10" height="10" as="geometry" />
        </mxCell>
        <mxCell id="gjNsdtH0i1_UxAf90j_M-377" value="" style="ellipse;whiteSpace=wrap;html=1;aspect=fixed;strokeColor=none;fillColor=#330000;container=0;" parent="gjNsdtH0i1_UxAf90j_M-405" vertex="1">
          <mxGeometry x="390" y="39.25" width="10" height="10" as="geometry" />
        </mxCell>
        <mxCell id="gjNsdtH0i1_UxAf90j_M-378" value="" style="ellipse;whiteSpace=wrap;html=1;aspect=fixed;strokeColor=none;fillColor=#FF0000;container=0;" parent="gjNsdtH0i1_UxAf90j_M-405" vertex="1">
          <mxGeometry x="390" y="49.25" width="10" height="10" as="geometry" />
        </mxCell>
        <mxCell id="gjNsdtH0i1_UxAf90j_M-379" value="" style="ellipse;whiteSpace=wrap;html=1;aspect=fixed;strokeColor=none;fillColor=#330000;container=0;" parent="gjNsdtH0i1_UxAf90j_M-405" vertex="1">
          <mxGeometry x="390" y="59.25" width="10" height="10" as="geometry" />
        </mxCell>
        <mxCell id="gjNsdtH0i1_UxAf90j_M-380" value="" style="ellipse;whiteSpace=wrap;html=1;aspect=fixed;strokeColor=none;fillColor=#330000;container=0;" parent="gjNsdtH0i1_UxAf90j_M-405" vertex="1">
          <mxGeometry x="390" y="68.5" width="10" height="10" as="geometry" />
        </mxCell>
        <mxCell id="gjNsdtH0i1_UxAf90j_M-381" value="" style="ellipse;whiteSpace=wrap;html=1;aspect=fixed;strokeColor=none;fillColor=#330000;container=0;" parent="gjNsdtH0i1_UxAf90j_M-405" vertex="1">
          <mxGeometry x="390" y="78.5" width="10" height="10" as="geometry" />
        </mxCell>
        <mxCell id="gjNsdtH0i1_UxAf90j_M-382" value="" style="ellipse;whiteSpace=wrap;html=1;aspect=fixed;strokeColor=none;fillColor=#330000;container=0;" parent="gjNsdtH0i1_UxAf90j_M-405" vertex="1">
          <mxGeometry x="390" y="30" width="10" height="10" as="geometry" />
        </mxCell>
        <mxCell id="gjNsdtH0i1_UxAf90j_M-383" value="" style="ellipse;whiteSpace=wrap;html=1;aspect=fixed;strokeColor=none;fillColor=#FF0000;container=0;" parent="gjNsdtH0i1_UxAf90j_M-405" vertex="1">
          <mxGeometry x="400" y="39.25" width="10" height="10" as="geometry" />
        </mxCell>
        <mxCell id="gjNsdtH0i1_UxAf90j_M-384" value="" style="ellipse;whiteSpace=wrap;html=1;aspect=fixed;strokeColor=none;fillColor=#FF0000;container=0;" parent="gjNsdtH0i1_UxAf90j_M-405" vertex="1">
          <mxGeometry x="400" y="49.25" width="10" height="10" as="geometry" />
        </mxCell>
        <mxCell id="gjNsdtH0i1_UxAf90j_M-385" value="" style="ellipse;whiteSpace=wrap;html=1;aspect=fixed;strokeColor=none;fillColor=#FF0000;container=0;" parent="gjNsdtH0i1_UxAf90j_M-405" vertex="1">
          <mxGeometry x="400" y="59.25" width="10" height="10" as="geometry" />
        </mxCell>
        <mxCell id="gjNsdtH0i1_UxAf90j_M-386" value="" style="ellipse;whiteSpace=wrap;html=1;aspect=fixed;strokeColor=none;fillColor=#FF0000;container=0;" parent="gjNsdtH0i1_UxAf90j_M-405" vertex="1">
          <mxGeometry x="400" y="68.5" width="10" height="10" as="geometry" />
        </mxCell>
        <mxCell id="gjNsdtH0i1_UxAf90j_M-387" value="" style="ellipse;whiteSpace=wrap;html=1;aspect=fixed;strokeColor=none;fillColor=#330000;container=0;" parent="gjNsdtH0i1_UxAf90j_M-405" vertex="1">
          <mxGeometry x="400" y="78.5" width="10" height="10" as="geometry" />
        </mxCell>
        <mxCell id="gjNsdtH0i1_UxAf90j_M-388" value="" style="ellipse;whiteSpace=wrap;html=1;aspect=fixed;strokeColor=none;fillColor=#330000;container=0;" parent="gjNsdtH0i1_UxAf90j_M-405" vertex="1">
          <mxGeometry x="400" y="30" width="10" height="10" as="geometry" />
        </mxCell>
        <mxCell id="gjNsdtH0i1_UxAf90j_M-389" value="" style="ellipse;whiteSpace=wrap;html=1;aspect=fixed;strokeColor=none;fillColor=#330000;container=0;" parent="gjNsdtH0i1_UxAf90j_M-405" vertex="1">
          <mxGeometry x="330" y="20" width="10" height="10" as="geometry" />
        </mxCell>
        <mxCell id="gjNsdtH0i1_UxAf90j_M-390" value="" style="ellipse;whiteSpace=wrap;html=1;aspect=fixed;strokeColor=none;fillColor=#330000;container=0;" parent="gjNsdtH0i1_UxAf90j_M-405" vertex="1">
          <mxGeometry x="340" y="20" width="10" height="10" as="geometry" />
        </mxCell>
        <mxCell id="gjNsdtH0i1_UxAf90j_M-391" value="" style="ellipse;whiteSpace=wrap;html=1;aspect=fixed;strokeColor=none;fillColor=#330000;container=0;" parent="gjNsdtH0i1_UxAf90j_M-405" vertex="1">
          <mxGeometry x="350" y="20" width="10" height="10" as="geometry" />
        </mxCell>
        <mxCell id="gjNsdtH0i1_UxAf90j_M-392" value="" style="ellipse;whiteSpace=wrap;html=1;aspect=fixed;strokeColor=none;fillColor=#330000;container=0;" parent="gjNsdtH0i1_UxAf90j_M-405" vertex="1">
          <mxGeometry x="360" y="20" width="10" height="10" as="geometry" />
        </mxCell>
        <mxCell id="gjNsdtH0i1_UxAf90j_M-393" value="" style="ellipse;whiteSpace=wrap;html=1;aspect=fixed;strokeColor=none;fillColor=#330000;container=0;" parent="gjNsdtH0i1_UxAf90j_M-405" vertex="1">
          <mxGeometry x="370" y="20" width="10" height="10" as="geometry" />
        </mxCell>
        <mxCell id="gjNsdtH0i1_UxAf90j_M-394" value="" style="ellipse;whiteSpace=wrap;html=1;aspect=fixed;strokeColor=none;fillColor=#330000;container=0;" parent="gjNsdtH0i1_UxAf90j_M-405" vertex="1">
          <mxGeometry x="380" y="20" width="10" height="10" as="geometry" />
        </mxCell>
        <mxCell id="gjNsdtH0i1_UxAf90j_M-395" value="" style="ellipse;whiteSpace=wrap;html=1;aspect=fixed;strokeColor=none;fillColor=#330000;container=0;" parent="gjNsdtH0i1_UxAf90j_M-405" vertex="1">
          <mxGeometry x="390" y="20" width="10" height="10" as="geometry" />
        </mxCell>
        <mxCell id="gjNsdtH0i1_UxAf90j_M-396" value="" style="ellipse;whiteSpace=wrap;html=1;aspect=fixed;strokeColor=none;fillColor=#330000;container=0;" parent="gjNsdtH0i1_UxAf90j_M-405" vertex="1">
          <mxGeometry x="400" y="20" width="10" height="10" as="geometry" />
        </mxCell>
        <mxCell id="gjNsdtH0i1_UxAf90j_M-397" value="" style="ellipse;whiteSpace=wrap;html=1;aspect=fixed;strokeColor=none;fillColor=#330000;container=0;" parent="gjNsdtH0i1_UxAf90j_M-405" vertex="1">
          <mxGeometry x="330" y="10" width="10" height="10" as="geometry" />
        </mxCell>
        <mxCell id="gjNsdtH0i1_UxAf90j_M-398" value="" style="ellipse;whiteSpace=wrap;html=1;aspect=fixed;strokeColor=none;fillColor=#330000;container=0;" parent="gjNsdtH0i1_UxAf90j_M-405" vertex="1">
          <mxGeometry x="340" y="10" width="10" height="10" as="geometry" />
        </mxCell>
        <mxCell id="gjNsdtH0i1_UxAf90j_M-399" value="" style="ellipse;whiteSpace=wrap;html=1;aspect=fixed;strokeColor=none;fillColor=#330000;container=0;" parent="gjNsdtH0i1_UxAf90j_M-405" vertex="1">
          <mxGeometry x="350" y="10" width="10" height="10" as="geometry" />
        </mxCell>
        <mxCell id="gjNsdtH0i1_UxAf90j_M-400" value="" style="ellipse;whiteSpace=wrap;html=1;aspect=fixed;strokeColor=none;fillColor=#330000;container=0;" parent="gjNsdtH0i1_UxAf90j_M-405" vertex="1">
          <mxGeometry x="360" y="10" width="10" height="10" as="geometry" />
        </mxCell>
        <mxCell id="gjNsdtH0i1_UxAf90j_M-401" value="" style="ellipse;whiteSpace=wrap;html=1;aspect=fixed;strokeColor=none;fillColor=#330000;container=0;" parent="gjNsdtH0i1_UxAf90j_M-405" vertex="1">
          <mxGeometry x="370" y="10" width="10" height="10" as="geometry" />
        </mxCell>
        <mxCell id="gjNsdtH0i1_UxAf90j_M-402" value="" style="ellipse;whiteSpace=wrap;html=1;aspect=fixed;strokeColor=none;fillColor=#330000;container=0;" parent="gjNsdtH0i1_UxAf90j_M-405" vertex="1">
          <mxGeometry x="380" y="10" width="10" height="10" as="geometry" />
        </mxCell>
        <mxCell id="gjNsdtH0i1_UxAf90j_M-403" value="" style="ellipse;whiteSpace=wrap;html=1;aspect=fixed;strokeColor=none;fillColor=#330000;container=0;" parent="gjNsdtH0i1_UxAf90j_M-405" vertex="1">
          <mxGeometry x="390" y="10" width="10" height="10" as="geometry" />
        </mxCell>
        <mxCell id="gjNsdtH0i1_UxAf90j_M-404" value="" style="ellipse;whiteSpace=wrap;html=1;aspect=fixed;strokeColor=none;fillColor=#330000;container=0;" parent="gjNsdtH0i1_UxAf90j_M-405" vertex="1">
          <mxGeometry x="400" y="10" width="10" height="10" as="geometry" />
        </mxCell>
        <mxCell id="gjNsdtH0i1_UxAf90j_M-411" style="edgeStyle=orthogonalEdgeStyle;rounded=0;orthogonalLoop=1;jettySize=auto;html=1;exitX=0.5;exitY=0;exitDx=0;exitDy=0;strokeWidth=3;shape=flexArrow;fillColor=#FFFFFF;" parent="1" source="gjNsdtH0i1_UxAf90j_M-409" edge="1">
          <mxGeometry relative="1" as="geometry">
            <mxPoint x="700.3636363636363" y="150" as="targetPoint" />
          </mxGeometry>
        </mxCell>
        <mxCell id="gjNsdtH0i1_UxAf90j_M-409" value="HT1635B" style="shape=process;whiteSpace=wrap;html=1;backgroundOutline=1;" parent="1" vertex="1">
          <mxGeometry x="640" y="210" width="120" height="60" as="geometry" />
        </mxCell>
      </root>
    </mxGraphModel>
  </diagram>
</mxfile>
